<svg width="16" height="16" viewBox="0 0 16 16" fill="none" xmlns="http://www.w3.org/2000/svg">
<g clip-path="url(#clip0_118_19770)">
<path d="M8 0.962963C9.3918 0.962963 10.7523 1.37568 11.9096 2.14892C13.0668 2.92216 13.9688 4.02119 14.5014 5.30704C15.034 6.59289 15.1733 8.0078 14.9018 9.37286C14.6303 10.7379 13.9601 11.9918 12.9759 12.9759C11.9918 13.9601 10.7379 14.6303 9.37286 14.9018C8.00781 15.1733 6.5929 15.034 5.30704 14.5014C4.02119 13.9688 2.92216 13.0668 2.14892 11.9096C1.37568 10.7523 0.962966 9.39179 0.962966 8C0.964927 6.13426 1.70696 4.3455 3.02623 3.02623C4.34551 1.70695 6.13427 0.964924 8 0.962963ZM8 0C6.41775 0 4.87103 0.469192 3.55544 1.34824C2.23985 2.22729 1.21447 3.47672 0.608967 4.93853C0.00346629 6.40034 -0.15496 8.00887 0.153721 9.56072C0.462403 11.1126 1.22433 12.538 2.34315 13.6569C3.46197 14.7757 4.88743 15.5376 6.43928 15.8463C7.99113 16.155 9.59966 15.9965 11.0615 15.391C12.5233 14.7855 13.7727 13.7602 14.6518 12.4446C15.5308 11.129 16 9.58225 16 8C16 5.87827 15.1571 3.84344 13.6569 2.34315C12.1566 0.842855 10.1217 0 8 0Z" fill="#4616CB"/>
<path d="M8.15999 0.962963C8.46962 0.962963 9.01629 1.50519 9.48296 2.69481C10.0326 4.0963 10.3348 5.98074 10.3348 8C10.3348 10.0193 10.0385 11.9037 9.48296 13.3052C9.01629 14.4904 8.47111 15.037 8.15999 15.037C7.84888 15.037 7.3037 14.4948 6.83703 13.3052C6.28888 11.9037 5.98518 10.0193 5.98518 8C5.98518 5.98074 6.28148 4.0963 6.83703 2.69481C7.30518 1.5037 7.85185 0.962963 8.15999 0.962963ZM8.15999 0C6.42666 0 5.02222 3.58222 5.02222 8C5.02222 12.4178 6.42666 16 8.15999 16C9.89333 16 11.2978 12.4178 11.2978 8C11.2978 3.58222 9.89333 0 8.15999 0Z" fill="#4616CB"/>
<path d="M1.13477 10.4993H15.1851" stroke="#4616CB" stroke-miterlimit="10"/>
<path d="M1.13477 5.49927H15.1851" stroke="#4616CB" stroke-miterlimit="10"/>
</g>
<defs>
<clipPath id="clip0_118_19770">
<rect width="16" height="16" fill="white"/>
</clipPath>
</defs>
</svg>
