<svg width="35" height="36" viewBox="0 0 35 36" fill="none" xmlns="http://www.w3.org/2000/svg">
<path d="M17.5555 2.54931C20.5711 2.54931 23.5189 3.44353 26.0262 5.11888C28.5336 6.79423 30.4878 9.17547 31.6418 11.9615C32.7958 14.7475 33.0978 17.8131 32.5095 20.7707C31.9211 23.7284 30.469 26.4451 28.3367 28.5774C26.2044 30.7097 23.4876 32.1619 20.53 32.7502C17.5724 33.3385 14.5068 33.0365 11.7208 31.8825C8.93476 30.7285 6.55352 28.7743 4.87816 26.267C3.20281 23.7596 2.3086 20.8118 2.3086 17.7962C2.31284 13.7538 3.92057 9.87815 6.779 7.01972C9.63743 4.16129 13.5131 2.55356 17.5555 2.54931ZM17.5555 0.462891C14.1273 0.462891 10.7761 1.47947 7.92562 3.38408C5.07517 5.28869 2.85352 7.99579 1.5416 11.163C0.229678 14.3303 -0.11358 17.8154 0.555231 21.1778C1.22404 24.5401 2.87488 27.6286 5.29899 30.0527C7.7231 32.4768 10.8116 34.1277 14.1739 34.7965C17.5363 35.4653 21.0214 35.1221 24.1887 33.8101C27.3559 32.4982 30.063 30.2766 31.9676 27.4261C33.8723 24.5757 34.8888 21.2244 34.8888 17.7962C34.8888 13.1991 33.0627 8.79034 29.812 5.53971C26.5614 2.28908 22.1526 0.462891 17.5555 0.462891Z" fill="white"/>
<path d="M17.902 2.54931C18.5729 2.54931 19.7573 3.72412 20.7685 6.30165C21.9593 9.3382 22.6141 13.4212 22.6141 17.7962C22.6141 22.1713 21.9722 26.2542 20.7685 29.2908C19.7573 31.8587 18.5761 33.0431 17.902 33.0431C17.228 33.0431 16.0467 31.8683 15.0356 29.2908C13.848 26.2542 13.1899 22.1713 13.1899 17.7962C13.1899 13.4212 13.8319 9.3382 15.0356 6.30165C16.0499 3.72091 17.2344 2.54931 17.902 2.54931ZM17.902 0.462891C14.1465 0.462891 11.1035 8.22437 11.1035 17.7962C11.1035 27.3681 14.1465 35.1296 17.902 35.1296C21.6576 35.1296 24.7006 27.3681 24.7006 17.7962C24.7006 8.22437 21.6576 0.462891 17.902 0.462891Z" fill="white"/>
<path d="M2.68115 23.2112H33.1236" stroke="white" stroke-width="3.85185" stroke-miterlimit="10"/>
<path d="M2.68115 12.3779H33.1236" stroke="white" stroke-width="3.85185" stroke-miterlimit="10"/>
</svg>
