<svg width="14" height="16" viewBox="0 0 14 16" fill="none" xmlns="http://www.w3.org/2000/svg">
<path d="M7.00004 1.11536C8.65659 1.11536 10.1374 1.34889 11.1866 1.71107C11.7136 1.89299 12.1046 2.09815 12.3539 2.30116C12.6074 2.50756 12.6539 2.65833 12.6539 2.73843H13.6539C13.6539 2.23392 13.3554 1.827 12.9853 1.52571C12.6112 1.22102 12.1001 0.968497 11.5129 0.765801C10.3337 0.358743 8.73762 0.115356 7.00004 0.115356V1.11536ZM1.34619 2.73843C1.34619 2.65833 1.39265 2.50756 1.64613 2.30116C1.89545 2.09815 2.28646 1.89299 2.81347 1.71107C3.86265 1.34889 5.34348 1.11536 7.00004 1.11536V0.115356C5.26246 0.115356 3.66637 0.358743 2.48716 0.765801C1.89997 0.968497 1.38892 1.22102 1.01473 1.52571C0.6447 1.827 0.346191 2.23392 0.346191 2.73843H1.34619ZM1.34619 3.4769V2.73843H0.346191V3.4769H1.34619ZM7.00004 5.09997C5.34348 5.09997 3.86265 4.86644 2.81347 4.50426C2.28646 4.32234 1.89545 4.11718 1.64613 3.91417C1.39265 3.70777 1.34619 3.557 1.34619 3.4769H0.346191C0.346191 3.98141 0.6447 4.38833 1.01473 4.68962C1.38892 4.99431 1.89997 5.24683 2.48716 5.44953C3.66637 5.85659 5.26246 6.09997 7.00004 6.09997V5.09997ZM12.6539 3.4769C12.6539 3.557 12.6074 3.70777 12.3539 3.91417C12.1046 4.11718 11.7136 4.32234 11.1866 4.50426C10.1374 4.86644 8.65659 5.09997 7.00004 5.09997V6.09997C8.73762 6.09997 10.3337 5.85659 11.5129 5.44953C12.1001 5.24683 12.6112 4.99431 12.9853 4.68962C13.3554 4.38833 13.6539 3.98141 13.6539 3.4769H12.6539ZM12.6539 2.73843V3.4769H13.6539V2.73843H12.6539ZM7.00004 6.36151C5.33369 6.36151 3.84104 6.17969 2.78031 5.89409C2.24632 5.75031 1.85027 5.58768 1.59949 5.42758C1.32573 5.2528 1.34619 5.16407 1.34619 5.19997H0.346191C0.346191 5.69741 0.711614 6.04715 1.06137 6.27044C1.43411 6.50841 1.94012 6.70348 2.52032 6.8597C3.68798 7.1741 5.27226 7.36151 7.00004 7.36151V6.36151ZM12.6539 5.19997C12.6539 5.16407 12.6743 5.2528 12.4006 5.42758C12.1498 5.58768 11.7538 5.75031 11.2198 5.89409C10.159 6.17969 8.66639 6.36151 7.00004 6.36151V7.36151C8.72782 7.36151 10.3121 7.1741 11.4798 6.8597C12.06 6.70348 12.566 6.50841 12.9387 6.27044C13.2885 6.04715 13.6539 5.69741 13.6539 5.19997H12.6539ZM13.6539 6.70766V5.19997H12.6539V6.70766H13.6539ZM7.00004 9.33074C8.73762 9.33074 10.3337 9.08736 11.5129 8.6803C12.1001 8.4776 12.6112 8.22508 12.9853 7.92039C13.3554 7.6191 13.6539 7.21217 13.6539 6.70766H12.6539C12.6539 6.78777 12.6074 6.93854 12.3539 7.14494C12.1046 7.34794 11.7136 7.55311 11.1866 7.73503C10.1374 8.09721 8.65659 8.33074 7.00004 8.33074V9.33074ZM0.346191 6.70766C0.346191 7.21217 0.6447 7.6191 1.01473 7.92039C1.38892 8.22508 1.89997 8.4776 2.48716 8.6803C3.66637 9.08736 5.26246 9.33074 7.00004 9.33074V8.33074C5.34348 8.33074 3.86265 8.09721 2.81347 7.73503C2.28646 7.55311 1.89545 7.34794 1.64613 7.14494C1.39265 6.93854 1.34619 6.78777 1.34619 6.70766H0.346191ZM0.346191 5.19997V6.70766H1.34619V5.19997H0.346191ZM0.346191 8.43074C0.346191 8.92818 0.711614 9.27791 1.06137 9.50121C1.43411 9.73918 1.94012 9.93425 2.52032 10.0905C3.68798 10.4049 5.27226 10.5923 7.00004 10.5923V9.59228C5.33369 9.59228 3.84104 9.41046 2.78031 9.12486C2.24632 8.98108 1.85027 8.81845 1.59949 8.65835C1.32573 8.48357 1.34619 8.39484 1.34619 8.43074H0.346191ZM1.34619 9.9692V8.43074H0.346191V9.9692H1.34619ZM7.00004 11.5615C5.34187 11.5615 3.86017 11.3353 2.81054 10.9802C2.28324 10.8018 1.89266 10.6001 1.64396 10.3999C1.39153 10.1967 1.34619 10.0483 1.34619 9.9692H0.346191C0.346191 10.4748 0.645815 10.8802 1.0169 11.1789C1.39171 11.4806 1.9032 11.7289 2.49009 11.9275C3.66885 12.3262 5.26408 12.5615 7.00004 12.5615V11.5615ZM12.6539 9.93843C12.6539 10.0185 12.6074 10.1693 12.3539 10.3757C12.1046 10.5787 11.7136 10.7839 11.1866 10.9658C10.1374 11.328 8.65659 11.5615 7.00004 11.5615V12.5615C8.73762 12.5615 10.3337 12.3181 11.5129 11.9111C12.1001 11.7084 12.6112 11.4558 12.9853 11.1512C13.3554 10.8499 13.6539 10.4429 13.6539 9.93843H12.6539ZM12.6539 8.43074V9.93843H13.6539V8.43074H12.6539ZM7.00004 10.5923C8.72782 10.5923 10.3121 10.4049 11.4798 10.0905C12.06 9.93425 12.566 9.73918 12.9387 9.50121C13.2885 9.27791 13.6539 8.92818 13.6539 8.43074H12.6539C12.6539 8.39484 12.6743 8.48357 12.4006 8.65835C12.1498 8.81845 11.7538 8.98108 11.2198 9.12486C10.159 9.41046 8.66639 9.59228 7.00004 9.59228V10.5923ZM0.346191 11.6923C0.346191 12.1897 0.711614 12.5395 1.06137 12.7628C1.43411 13.0007 1.94012 13.1958 2.52032 13.352C3.68798 13.6664 5.27226 13.8538 7.00004 13.8538V12.8538C5.33369 12.8538 3.84104 12.672 2.78031 12.3864C2.24632 12.2426 1.85027 12.08 1.59949 11.9199C1.32573 11.7451 1.34619 11.6564 1.34619 11.6923H0.346191ZM1.34619 13.2V11.6923H0.346191V13.2H1.34619ZM7.00004 14.823C5.34348 14.823 3.86265 14.5895 2.81347 14.2273C2.28646 14.0454 1.89545 13.8403 1.64613 13.6372C1.39265 13.4308 1.34619 13.2801 1.34619 13.2H0.346191C0.346191 13.7045 0.6447 14.1114 1.01473 14.4127C1.38892 14.7174 1.89997 14.9699 2.48716 15.1726C3.66637 15.5797 5.26246 15.823 7.00004 15.823V14.823ZM12.6539 13.2C12.6539 13.2801 12.6074 13.4308 12.3539 13.6372C12.1046 13.8403 11.7136 14.0454 11.1866 14.2273C10.1374 14.5895 8.65659 14.823 7.00004 14.823V15.823C8.73762 15.823 10.3337 15.5797 11.5129 15.1726C12.1001 14.9699 12.6112 14.7174 12.9853 14.4127C13.3554 14.1114 13.6539 13.7045 13.6539 13.2H12.6539ZM12.6539 11.6923V13.2H13.6539V11.6923H12.6539ZM7.00004 13.8538C8.72782 13.8538 10.3121 13.6664 11.4798 13.352C12.06 13.1958 12.566 13.0007 12.9387 12.7628C13.2885 12.5395 13.6539 12.1897 13.6539 11.6923H12.6539C12.6539 11.6564 12.6743 11.7451 12.4006 11.9199C12.1498 12.08 11.7538 12.2426 11.2198 12.3864C10.159 12.672 8.66639 12.8538 7.00004 12.8538V13.8538Z" fill="#A7A8AA"/>
</svg>
