<svg width="27" height="33" viewBox="0 0 27 33" fill="none" xmlns="http://www.w3.org/2000/svg">
<path fill-rule="evenodd" clip-rule="evenodd" d="M26.8889 5.28518C26.8889 2.75185 20.9095 0.685181 13.5555 0.685181C6.20159 0.685181 0.222204 2.75185 0.222204 5.28518V6.88518C0.222204 9.41851 6.20159 11.4852 13.5555 11.4852C20.9095 11.4852 26.8889 9.41851 26.8889 6.88518V5.28518ZM0.222168 10.6185C0.222168 12.6185 6.20155 14.2185 13.5555 14.2185C20.9095 14.2185 26.8888 12.6185 26.8888 10.6185V13.8852C26.8888 16.4185 20.9095 18.4852 13.5555 18.4852C6.20155 18.4852 0.222168 16.4185 0.222168 13.8852V10.6185ZM13.5555 21.2185C6.20155 21.2185 0.222168 19.6185 0.222168 17.6185V20.9518C0.222168 23.4851 6.20155 25.4851 13.5555 25.4851C20.9095 25.4851 26.8888 23.4185 26.8888 20.8851V17.6185C26.8888 19.6185 20.9095 21.2185 13.5555 21.2185ZM13.5555 28.2851C6.20155 28.2851 0.222168 26.6851 0.222168 24.6851V27.9517C0.222168 30.4851 6.20155 32.5517 13.5555 32.5517C20.9095 32.5517 26.8888 30.4851 26.8888 27.9517V24.6851C26.8888 26.6851 20.9095 28.2851 13.5555 28.2851Z" fill="white"/>
</svg>
