<svg width="33" height="33" viewBox="0 0 33 33" fill="none" xmlns="http://www.w3.org/2000/svg">
<path fill-rule="evenodd" clip-rule="evenodd" d="M0.55542 29.4074C0.55542 30.8741 1.75542 32.0741 3.22209 32.0741H31.4888C32.0888 32.0741 32.5554 31.6074 32.5554 31.0074V29.1407C32.5554 28.5407 32.0888 28.0741 31.4888 28.0741H5.55542C5.02209 28.0741 4.55542 27.6074 4.55542 27.0741V1.80739C4.55542 1.20739 4.08875 0.740723 3.48875 0.740723H1.62209C1.02209 0.740723 0.55542 1.20739 0.55542 1.80739V29.4074ZM32.3555 8.47405C32.3555 7.34072 31.4888 6.47405 30.3555 6.47405C29.7555 6.47405 29.2888 6.74072 28.8888 7.07405L23.1555 12.8074L19.2221 9.07405L19.1555 9.00738L19.0221 8.87405C18.9555 8.87405 18.9555 8.80738 18.8888 8.80738C18.8221 8.74072 18.7555 8.74072 18.6888 8.67405C18.6221 8.67405 18.6221 8.60738 18.5555 8.60738C18.4888 8.60738 18.4221 8.54072 18.2888 8.54072C18.2221 8.54072 18.2221 8.54072 18.1555 8.47405C18.0221 8.47405 17.8888 8.40738 17.7555 8.40738C17.6221 8.40738 17.4888 8.40738 17.3555 8.47405C17.2888 8.47405 17.2888 8.47405 17.2221 8.54072C17.1555 8.54072 17.0221 8.60738 16.9555 8.60738C16.8888 8.60738 16.8888 8.67405 16.8221 8.67405C16.7555 8.74072 16.6888 8.74072 16.6221 8.80738C16.5555 8.80738 16.5555 8.87405 16.4888 8.94072C16.4221 9.00738 16.3555 9.00738 16.2888 9.07405L8.6888 16.7407C8.2888 17.1407 8.02214 17.6074 8.02214 18.2074C8.02214 19.3407 8.8888 20.2074 10.0221 20.2074C10.4888 20.2074 10.9555 20.0074 11.2888 19.7407L17.8221 13.274L21.6221 17.0074C21.6888 17.074 21.7555 17.074 21.8221 17.1407L21.9555 17.274C22.0221 17.3407 22.0888 17.3407 22.1555 17.4074C22.2221 17.4074 22.2221 17.474 22.2888 17.474C22.3555 17.5407 22.4888 17.5407 22.5555 17.5407C22.6221 17.5407 22.6221 17.5407 22.6888 17.6074C22.8221 17.6074 22.9555 17.674 23.0888 17.674C23.2221 17.674 23.3555 17.674 23.4888 17.6074H23.6221C23.6888 17.6074 23.7555 17.5407 23.8888 17.5407C23.9555 17.5407 23.9555 17.474 24.0221 17.474C24.0888 17.474 24.1555 17.4074 24.2221 17.3407C24.2888 17.3407 24.2888 17.274 24.3555 17.274L24.4221 17.2074L24.4888 17.1407L24.5555 17.074L31.7555 9.94072C32.0888 9.54072 32.3555 9.07405 32.3555 8.47405Z" fill="white"/>
</svg>
