<svg width="164" height="59" viewBox="0 0 164 59" fill="none" xmlns="http://www.w3.org/2000/svg">
<path d="M69.181 14.0112V11.1165H61.7732V14.8205H65.4771V29.638H69.181V17.2454C71.1676 14.8878 73.3576 14.1458 74.9403 14.1458C76.3883 14.1458 77.7017 14.6185 78.6441 15.4593V11.2496C77.9366 10.8457 76.9268 10.6108 75.7825 10.6108C73.2903 10.6108 71.169 11.7553 69.181 14.0112Z" fill="white"/>
<path d="M90.7342 10.6108C84.3691 10.6108 80.1595 15.0898 80.1595 20.3765C80.1595 25.6976 84.3691 30.1436 90.7342 30.1436C97.0649 30.1436 101.309 25.6976 101.309 20.3765C101.309 15.0898 97.0649 10.6108 90.7342 10.6108ZM90.7342 26.9168C86.8283 26.9168 84.0325 24.257 84.0325 20.384C84.0325 16.5453 86.8283 13.8511 90.7342 13.8511C94.5054 13.8511 97.4359 16.5438 97.4359 20.384C97.4359 24.2495 94.5054 26.9093 90.7342 26.9093V26.9168Z" fill="white"/>
<path d="M121.447 13.6417C119.763 11.8181 117.27 10.6108 114.072 10.6108C108.549 10.6108 104.003 14.7188 104.003 20.3765C104.003 26.0013 108.549 30.1436 114.072 30.1436C117.27 30.1436 119.757 28.8975 121.447 27.0784V36.12H125.151V11.115H121.447V13.6417ZM114.715 26.9438C110.642 26.9438 107.88 24.0805 107.88 20.3765C107.88 16.6366 110.642 13.8092 114.715 13.8092C118.723 13.8092 121.447 16.6381 121.447 20.3765C121.447 24.085 118.718 26.9438 114.711 26.9438H114.715Z" fill="white"/>
<path d="M132.056 8.94146H135.896L136.064 4.63159H131.921L132.056 8.94146Z" fill="white"/>
<path d="M128.419 14.8205H132.123V29.638H135.829V11.115L128.419 11.1165V14.8205Z" fill="white"/>
<path d="M149.938 10.6108C143.573 10.6108 139.364 15.0898 139.364 20.3765C139.364 25.6976 143.573 30.1436 149.938 30.1436C156.269 30.1436 160.513 25.6976 160.513 20.3765C160.513 15.0898 156.269 10.6108 149.938 10.6108ZM149.938 26.9168C146.032 26.9168 143.236 24.257 143.236 20.384C143.236 16.5453 146.032 13.8511 149.938 13.8511C153.709 13.8511 156.64 16.5438 156.64 20.384C156.64 24.2495 153.709 26.9093 149.938 26.9093V26.9168Z" fill="white"/>
<path d="M50.9039 10.6108C47.7041 10.6108 45.2194 11.8226 43.529 13.6417V11.115H36.1198V14.8205H39.8236V36.12H43.532V27.0769C45.2149 28.896 47.7071 30.1421 50.9069 30.1421C56.4298 30.1421 60.9759 25.9998 60.9759 20.375C60.9729 14.7188 56.4268 10.6108 50.9039 10.6108ZM50.2636 26.9438C46.2561 26.9438 43.532 24.0805 43.532 20.3765C43.532 16.6366 46.2591 13.8092 50.2636 13.8092C54.3385 13.8092 57.1 16.6381 57.1 20.3765C57.1 24.085 54.3385 26.9438 50.2636 26.9438Z" fill="white"/>
<path d="M162.836 27.789C162.933 27.6596 162.978 27.498 162.961 27.3369C162.944 27.1758 162.866 27.0272 162.743 26.9213C162.572 26.7902 162.36 26.7249 162.145 26.7373H161.342V28.8422H161.748V28.0942H162.072L162.52 28.8422H162.969L162.471 28.0104C162.613 27.9772 162.741 27.8996 162.836 27.789ZM162.134 27.7531H161.756V27.0769H162.134C162.241 27.0708 162.346 27.1003 162.434 27.1607C162.47 27.1883 162.5 27.2247 162.519 27.2664C162.538 27.3082 162.547 27.3541 162.544 27.4001C162.547 27.4492 162.538 27.4984 162.518 27.5434C162.498 27.5884 162.467 27.628 162.429 27.6589C162.345 27.7242 162.241 27.7576 162.134 27.7531Z" fill="white"/>
<path d="M163.746 26.8197C163.579 26.5345 163.34 26.2986 163.053 26.1361C162.752 25.9731 162.416 25.8877 162.074 25.8877C161.732 25.8877 161.395 25.9731 161.095 26.1361C160.807 26.2994 160.567 26.5371 160.402 26.8242C160.232 27.121 160.145 27.4577 160.149 27.7996C160.146 28.1317 160.231 28.4587 160.398 28.7462C160.564 29.0337 160.805 29.271 161.095 29.4332C161.395 29.5971 161.732 29.683 162.074 29.683C162.416 29.683 162.753 29.5971 163.053 29.4332C163.344 29.2698 163.586 29.0305 163.753 28.7409C163.92 28.4512 164.005 28.1218 164 27.7876C164.004 27.448 163.916 27.1137 163.746 26.8197ZM163.389 28.57C163.263 28.798 163.076 28.9864 162.849 29.1145C162.611 29.2436 162.345 29.3113 162.074 29.3113C161.803 29.3113 161.536 29.2436 161.298 29.1145C161.071 28.989 160.884 28.8018 160.758 28.5745C160.627 28.3359 160.56 28.0674 160.564 27.7951C160.559 27.518 160.626 27.2445 160.758 27.0007C160.883 26.7705 161.07 26.5798 161.298 26.4502C161.533 26.3175 161.799 26.2493 162.069 26.2528C162.342 26.2484 162.611 26.3165 162.849 26.4502C163.077 26.5798 163.264 26.7705 163.389 27.0007C163.521 27.2408 163.588 27.5109 163.584 27.7846C163.59 28.06 163.523 28.332 163.389 28.573V28.57Z" fill="white"/>
<path d="M23.6037 2.48929L18.3656 7.72754L20.9836 10.3456L26.2217 5.10736L23.6037 2.48929Z" fill="white"/>
<path d="M7.88581 2.48984L5.26782 5.10791L10.5059 10.3462L13.1239 7.72809L7.88581 2.48984Z" fill="white"/>
<path d="M2.96282 7.40891L0 10.3718L23.5757 33.9482L26.5385 30.9853L2.96282 7.40891Z" fill="white"/>
<path d="M20.9842 15.5875L18.3662 18.2056L23.6043 23.4438L26.2223 20.8258L20.9842 15.5875Z" fill="white"/>
<path d="M28.7091 11.1135H21.3013V14.816H28.7091V11.1135Z" fill="white"/>
<path d="M17.5958 0H13.8934V7.408H17.5958V0Z" fill="white"/>
<path d="M43.6921 43.2746L42.6967 43.0239C41.679 42.7755 41.3294 42.5457 41.3294 42.056C41.3294 41.4432 41.8972 41.088 42.6878 41.088C43.4783 41.088 44.1864 41.5035 44.2755 42.3577H45.4446C45.3243 41.1182 44.4247 40.1201 42.6677 40.1201C41.2782 40.1201 40.1403 40.9325 40.1403 42.1395C40.1403 43.1399 40.8083 43.7945 42.1578 44.1288L43.1576 44.3609C44.0483 44.5791 44.4648 44.8924 44.4648 45.475C44.4648 46.1412 43.8167 46.5358 42.9372 46.5358C42.4939 46.5478 42.0631 46.3818 41.734 46.072C41.4049 45.7622 41.2026 45.3324 41.1691 44.8715H40C40.1113 46.1714 41.1 47.506 42.9283 47.506C44.5249 47.506 45.645 46.6194 45.645 45.417C45.6405 44.2959 44.9903 43.5879 43.6921 43.2746Z" fill="white"/>
<path d="M49.7156 40.1201C47.7783 40.1201 46.4489 41.7658 46.4489 43.8154C46.4489 45.865 47.7849 47.513 49.7156 47.513C51.6462 47.513 52.9823 45.8673 52.9823 43.8154C52.9823 41.7635 51.6529 40.1201 49.7156 40.1201ZM49.7156 46.5428C48.4975 46.5428 47.638 45.4611 47.638 43.8154C47.638 42.1697 48.4975 41.088 49.7156 41.088C50.9336 41.088 51.8043 42.1604 51.8043 43.8154C51.8043 45.4704 50.9359 46.5428 49.7156 46.5428Z" fill="white"/>
<path d="M55.3806 40.2246H54.2516V47.4086H58.3756V46.4407H55.3806V40.2246Z" fill="white"/>
<path d="M63.2301 44.6905C63.2301 45.9393 62.6623 46.5474 61.7025 46.5474C60.7428 46.5474 60.1638 45.9439 60.1638 44.6905V40.2246H59.0348V44.5559C59.0348 46.5428 60.0346 47.513 61.707 47.513C63.3793 47.513 64.3635 46.5428 64.3635 44.5559V40.2246H63.2346L63.2301 44.6905Z" fill="white"/>
<path d="M65.2386 41.1925H67.4766V47.4086H68.6056V41.1925H70.8324V40.2246H65.2386V41.1925Z" fill="white"/>
<path d="M72.91 40.2246H71.781V47.4086H72.91V40.2246Z" fill="white"/>
<path d="M80.7128 43.8154C80.7128 41.7658 79.3767 40.1201 77.4461 40.1201C75.5154 40.1201 74.1793 41.7658 74.1793 43.8154C74.1793 45.865 75.5154 47.513 77.4461 47.513C79.3767 47.513 80.7128 45.8673 80.7128 43.8154ZM75.3684 43.8154C75.3684 42.1604 76.228 41.088 77.4461 41.088C78.6641 41.088 79.5326 42.1604 79.5326 43.8154C79.5326 45.4704 78.6753 46.5428 77.4461 46.5428C76.2169 46.5428 75.3684 45.4611 75.3684 43.8154Z" fill="white"/>
<path d="M87.7941 47.4086V40.2246H86.6651V47.1788L84.2178 40.2246H81.9799V47.4086H83.1089V40.4521L85.5583 47.4086H87.7941Z" fill="white"/>
<path d="M92.7086 43.2746L91.7109 43.0239C90.6911 42.7755 90.3415 42.5457 90.3415 42.056C90.3415 41.4432 90.9115 41.088 91.6998 41.088C92.4881 41.088 93.1985 41.5035 93.2898 42.3577H94.4566C94.3386 41.1182 93.439 40.1201 91.6798 40.1201C90.2925 40.1201 89.1546 40.9325 89.1546 42.1395C89.1546 43.1399 89.8226 43.7945 91.1721 44.1288L92.1697 44.3609C93.0604 44.5791 93.479 44.8924 93.479 45.475C93.479 46.1412 92.8288 46.5358 91.9514 46.5358C91.5079 46.5479 91.0769 46.3819 90.7474 46.0722C90.418 45.7624 90.2152 45.3326 90.1811 44.8715H89.0143C89.1234 46.1714 90.1121 47.506 91.9403 47.506C93.5392 47.506 94.657 46.6194 94.657 45.417C94.657 44.2959 94.009 43.5879 92.7086 43.2746Z" fill="white"/>
<path d="M102.638 41.1925V40.2246H98.2043V47.4086H99.3333V44.275H102.578V43.3071H99.3333V41.1925H102.638Z" fill="white"/>
<path d="M103.437 43.8154C103.437 45.8673 104.773 47.513 106.704 47.513C108.635 47.513 109.971 45.8673 109.971 43.8154C109.971 41.7635 108.635 40.1201 106.704 40.1201C104.773 40.1201 103.437 41.7658 103.437 43.8154ZM108.793 43.8154C108.793 45.4611 107.933 46.5428 106.704 46.5428C105.475 46.5428 104.626 45.4611 104.626 43.8154C104.626 42.1697 105.486 41.088 106.704 41.088C107.922 41.088 108.793 42.1604 108.793 43.8154Z" fill="white"/>
<path d="M116.304 47.4086L114.725 44.3052C115.665 44.0034 116.195 43.3257 116.195 42.3578C116.195 40.9952 115.155 40.2246 113.427 40.2246H111.24V47.4086H112.369V44.4932H113.578L115.068 47.4086H116.304ZM113.527 43.5253H112.369V41.1925H113.527C114.496 41.1925 115.015 41.5987 115.015 42.3531C115.015 43.1075 114.496 43.5253 113.527 43.5253Z" fill="white"/>
<path d="M120.989 40.4521L123.436 47.4086H125.674V40.2246H124.545V47.1788L122.098 40.2246H119.86V47.4086H120.989V40.4521Z" fill="white"/>
<path d="M127.353 47.4086H131.538V46.4407H128.48V44.2007H131.368V43.2328H128.48V41.1925H131.457V40.2246H127.353V47.4086Z" fill="white"/>
<path d="M137.232 47.4086H138.541L136.002 43.588L138.231 40.2246H136.922L135.294 42.6804L133.655 40.2246H132.337L134.575 43.5764L132.027 47.4086H133.346L135.283 44.4816L137.232 47.4086Z" fill="white"/>
<path d="M141.977 47.4086V41.1925H144.204V40.2246H138.61V41.1925H140.848V47.4086H141.977Z" fill="white"/>
<path d="M149.699 46.0762H149.719V47.4085H150.777V43.5879H147.357V44.535H149.684V44.7531C149.684 45.8464 148.884 46.5428 147.795 46.5428C146.417 46.5428 145.618 45.4611 145.618 43.8154C145.618 42.1697 146.397 41.088 147.755 41.088C148.815 41.088 149.394 41.7333 149.537 42.5341H150.706C150.494 41.1414 149.388 40.1201 147.709 40.1201C145.704 40.1201 144.433 41.7658 144.433 43.8154C144.433 45.865 145.74 47.513 147.657 47.513C148.099 47.5254 148.533 47.3936 148.899 47.136C149.266 46.8783 149.545 46.5078 149.699 46.0762Z" fill="white"/>
<path d="M156.362 46.4407H153.305V44.2007H156.191V43.2328H153.305V41.1925H156.282V40.2246H152.176V47.4086H156.362V46.4407Z" fill="white"/>
<path d="M158.858 40.4521L161.306 47.4086H163.543V40.2246H162.414V47.1788L159.967 40.2246H157.729V47.4086H158.858V40.4521Z" fill="white"/>
<path d="M74.2194 51.0017H73.0905V58.1857H74.2194V51.0017Z" fill="white"/>
<path d="M80.5814 57.9559L78.1342 51.0017H75.8984V58.1857H77.0252V51.2315L79.4725 58.1857H81.7104V51.0017H80.5814V57.9559Z" fill="white"/>
<path d="M83.3894 58.1857H84.5184V55.0521H87.7651V54.0842H84.5184V51.9696H87.8252V51.0017H83.3894V58.1857Z" fill="white"/>
<path d="M94.038 53.1372C94.038 51.7723 92.9981 51.0017 91.2701 51.0017H89.0834V58.1973H90.2124V55.2703H91.4215L92.909 58.1857H94.1471L92.5772 55.0823C93.508 54.7805 94.038 54.1051 94.038 53.1372ZM91.3659 54.2977H90.2079V51.9766H91.3659C92.3345 51.9766 92.8556 52.3828 92.8556 53.1372C92.8556 53.8915 92.339 54.3024 91.3703 54.3024L91.3659 54.2977Z" fill="white"/>
<path d="M96.8662 51.0017L94.5881 58.1973H95.7461L96.3852 56.1779H99.4916L100.131 58.1973H101.28L99.0128 51.0017H96.8662ZM96.6858 55.1798L97.935 51.2338L99.182 55.1798H96.6858Z" fill="white"/>
<path d="M105.317 54.0517L104.317 53.8033C103.299 53.5526 102.95 53.3228 102.95 52.8331C102.95 52.2203 103.518 51.8651 104.308 51.8651C105.099 51.8651 105.807 52.2829 105.896 53.1371H107.065C106.945 51.8976 106.045 50.8972 104.288 50.8972C102.899 50.8972 101.761 51.7096 101.761 52.9166C101.761 53.917 102.429 54.5739 103.778 54.9058L104.776 55.138C105.666 55.3701 106.085 55.6695 106.085 56.2521C106.085 56.9183 105.435 57.3152 104.558 57.3152C104.114 57.3272 103.683 57.1609 103.354 56.8506C103.024 56.5403 102.822 56.1099 102.789 55.6486H101.62C101.729 56.9508 102.718 58.2831 104.546 58.2831C106.145 58.2831 107.263 57.3988 107.263 56.1941C107.274 55.073 106.606 54.3604 105.317 54.0517Z" fill="white"/>
<path d="M107.604 51.9696H109.842V58.1857H110.971V51.9696H113.198V51.0017H107.604V51.9696Z" fill="white"/>
<path d="M119.101 53.1372C119.101 51.7723 118.063 51.0017 116.335 51.0017H114.146V58.1973H115.275V55.2703H116.484L117.963 58.1857H119.201L117.624 55.0823C118.571 54.7805 119.101 54.1051 119.101 53.1372ZM116.429 54.2977H115.268V51.9766H116.429C117.397 51.9766 117.916 52.3828 117.916 53.1372C117.916 53.8915 117.404 54.3024 116.435 54.3024L116.429 54.2977Z" fill="white"/>
<path d="M124.565 55.4676C124.565 56.7187 123.995 57.3245 123.038 57.3245C122.08 57.3245 121.499 56.721 121.499 55.4676V51.0017H120.37V55.333C120.37 57.3222 121.37 58.2901 123.042 58.2901C124.715 58.2901 125.699 57.3222 125.699 55.333V51.0017H124.57L124.565 55.4676Z" fill="white"/>
<path d="M130.239 57.3222C128.941 57.3222 128.09 56.2707 128.09 54.5948C128.09 52.9189 128.91 51.8651 130.17 51.8651C131.188 51.8651 131.858 52.4895 132.047 53.6153H133.217C132.994 51.9696 131.718 50.8972 130.13 50.8972C128.222 50.8972 126.904 52.5429 126.904 54.5948C126.904 56.7071 128.251 58.2901 130.159 58.2901C131.747 58.2901 133.027 57.227 133.277 55.5836H132.108C131.927 56.6815 131.219 57.3222 130.239 57.3222Z" fill="white"/>
<path d="M133.566 51.9696H135.804V58.1857H136.933V51.9696H139.16V51.0017H133.566V51.9696Z" fill="white"/>
<path d="M144.239 55.4676C144.239 56.7187 143.669 57.3245 142.709 57.3245C141.75 57.3245 141.173 56.721 141.173 55.4676V51.0017H140.044V55.333C140.044 57.3222 141.042 58.2901 142.716 58.2901C144.391 58.2901 145.375 57.3222 145.375 55.333V51.0017H144.239V55.4676Z" fill="white"/>
<path d="M151.926 53.1372C151.926 51.7723 150.886 51.0017 149.158 51.0017H146.972V58.1973H148.101V55.2703H149.31L150.797 58.1857H152.033L150.454 55.0823C151.396 54.7805 151.926 54.1051 151.926 53.1372ZM149.254 54.2977H148.096V51.9766H149.254C150.223 51.9766 150.744 52.3828 150.744 53.1372C150.744 53.8915 150.227 54.3024 149.258 54.3024L149.254 54.2977Z" fill="white"/>
<path d="M154.394 54.9778H157.279V54.0099H154.394V51.9696H157.371V51.0017H153.265V58.1857H157.451V57.2178H154.394V54.9778Z" fill="white"/>
<path d="M162.054 54.0517L161.054 53.8033C160.036 53.5526 159.687 53.3228 159.687 52.8331C159.687 52.2203 160.255 51.8651 161.045 51.8651C161.836 51.8651 162.544 52.2829 162.633 53.1371H163.802C163.682 51.8976 162.782 50.8972 161.025 50.8972C159.635 50.8972 158.498 51.7096 158.498 52.9166C158.498 53.917 159.166 54.5739 160.515 54.9058L161.513 55.138C162.403 55.3701 162.822 55.6695 162.822 56.2521C162.822 56.9183 162.172 57.3152 161.294 57.3152C160.851 57.3272 160.42 57.1609 160.091 56.8506C159.761 56.5403 159.559 56.1099 159.526 55.6486H158.357C158.466 56.9508 159.455 58.2831 161.283 58.2831C162.882 58.2831 164 57.3988 164 56.1941C164.002 55.073 163.354 54.3604 162.054 54.0517Z" fill="white"/>
</svg>
