<svg width="164" height="59" viewBox="0 0 164 59" fill="none" xmlns="http://www.w3.org/2000/svg">
<g clip-path="url(#clip0_118_19196)">
<path d="M69.1805 14.0109V11.1163H61.7727V14.8202H65.4766V29.6374H69.1805V17.2451C71.1671 14.8875 73.3572 14.1455 74.9399 14.1455C76.3879 14.1455 77.7013 14.6182 78.6438 15.459V11.2494C77.9362 10.8455 76.9264 10.6107 75.7821 10.6107C73.2898 10.6107 71.1686 11.755 69.1805 14.0109Z" fill="#4616CB"/>
<path d="M90.7339 10.6107C84.3687 10.6107 80.1592 15.0895 80.1592 20.3761C80.1592 25.6971 84.3687 30.143 90.7339 30.143C97.0647 30.143 101.309 25.6971 101.309 20.3761C101.309 15.0895 97.0647 10.6107 90.7339 10.6107ZM90.7339 26.9163C86.828 26.9163 84.0321 24.2565 84.0321 20.3835C84.0321 16.545 86.828 13.8508 90.7339 13.8508C94.5051 13.8508 97.4357 16.5435 97.4357 20.3835C97.4357 24.249 94.5051 26.9088 90.7339 26.9088V26.9163Z" fill="#4616CB"/>
<path d="M121.446 13.6414C119.762 11.8179 117.27 10.6107 114.072 10.6107C108.549 10.6107 104.002 14.7185 104.002 20.3761C104.002 26.0008 108.549 30.143 114.072 30.143C117.27 30.143 119.756 28.8969 121.446 27.0778V36.1192H125.15V11.1148H121.446V13.6414ZM114.715 26.9432C110.641 26.9432 107.88 24.08 107.88 20.3761C107.88 16.6363 110.641 13.8089 114.715 13.8089C118.722 13.8089 121.446 16.6377 121.446 20.3761C121.446 24.0845 118.718 26.9432 114.71 26.9432H114.715Z" fill="#4616CB"/>
<path d="M132.056 8.94117H135.896L136.064 4.63141H131.922L132.056 8.94117Z" fill="#4616CB"/>
<path d="M128.419 14.8202H132.123V29.6373H135.829V11.1147L128.419 11.1162V14.8202Z" fill="#4616CB"/>
<path d="M149.938 10.6107C143.573 10.6107 139.364 15.0895 139.364 20.3761C139.364 25.6971 143.573 30.143 149.938 30.143C156.269 30.143 160.513 25.6971 160.513 20.3761C160.513 15.0895 156.269 10.6107 149.938 10.6107ZM149.938 26.9163C146.032 26.9163 143.236 24.2565 143.236 20.3835C143.236 16.545 146.032 13.8508 149.938 13.8508C153.709 13.8508 156.64 16.5435 156.64 20.3835C156.64 24.249 153.709 26.9088 149.938 26.9088V26.9163Z" fill="#4616CB"/>
<path d="M50.9034 10.6107C47.7036 10.6107 45.2189 11.8224 43.5285 13.6414V11.1148H36.1191V14.8202H39.8231V36.1192H43.5315V27.0763C45.2144 28.8954 47.7066 30.1415 50.9064 30.1415C56.4293 30.1415 60.9755 25.9993 60.9755 20.3746C60.9725 14.7185 56.4264 10.6107 50.9034 10.6107ZM50.2631 26.9432C46.2555 26.9432 43.5315 24.08 43.5315 20.3761C43.5315 16.6363 46.2585 13.8089 50.2631 13.8089C54.338 13.8089 57.0995 16.6377 57.0995 20.3761C57.0995 24.0845 54.338 26.9432 50.2631 26.9432Z" fill="#4616CB"/>
<path d="M162.836 27.7883C162.934 27.6589 162.978 27.4973 162.961 27.3362C162.944 27.1751 162.866 27.0266 162.743 26.9207C162.573 26.7895 162.36 26.7242 162.145 26.7367H161.342V28.8414H161.749V28.0935H162.072L162.521 28.8414H162.969L162.471 28.0097C162.613 27.9765 162.741 27.8989 162.836 27.7883ZM162.135 27.7524H161.756V27.0762H162.135C162.241 27.0701 162.346 27.0996 162.434 27.16C162.471 27.1876 162.5 27.224 162.519 27.2657C162.539 27.3075 162.547 27.3534 162.545 27.3994C162.547 27.4486 162.538 27.4977 162.518 27.5427C162.498 27.5877 162.468 27.6273 162.429 27.6582C162.345 27.7235 162.241 27.7569 162.135 27.7524Z" fill="#4616CB"/>
<path d="M163.746 26.819C163.58 26.5338 163.341 26.2979 163.053 26.1353C162.753 25.9723 162.416 25.887 162.074 25.887C161.732 25.887 161.396 25.9723 161.095 26.1353C160.807 26.2987 160.568 26.5363 160.403 26.8235C160.233 27.1202 160.146 27.457 160.15 27.7988C160.146 28.1309 160.232 28.458 160.398 28.7454C160.565 29.0329 160.805 29.2702 161.095 29.4324C161.396 29.5963 161.732 29.6822 162.074 29.6822C162.416 29.6822 162.753 29.5963 163.053 29.4324C163.345 29.2689 163.587 29.0297 163.754 28.7401C163.92 28.4504 164.006 28.121 164 27.7868C164.004 27.4472 163.916 27.1129 163.746 26.819ZM163.39 28.5692C163.264 28.7972 163.077 28.9856 162.85 29.1137C162.612 29.2428 162.345 29.3104 162.074 29.3104C161.803 29.3104 161.537 29.2428 161.299 29.1137C161.071 28.9882 160.884 28.801 160.759 28.5737C160.628 28.3351 160.56 28.0666 160.564 27.7943C160.56 27.5173 160.627 27.2438 160.759 27C160.884 26.7697 161.071 26.579 161.299 26.4495C161.534 26.3167 161.799 26.2486 162.069 26.252C162.342 26.2477 162.612 26.3158 162.85 26.4495C163.078 26.579 163.265 26.7697 163.39 27C163.522 27.2401 163.589 27.5101 163.584 27.7839C163.59 28.0592 163.523 28.3312 163.39 28.5722V28.5692Z" fill="#4616CB"/>
<path d="M23.6031 2.48917L18.365 7.72729L20.983 10.3453L26.2211 5.10717L23.6031 2.48917Z" fill="#4616CB"/>
<path d="M7.88485 2.48978L5.26685 5.10779L10.505 10.3459L13.123 7.72791L7.88485 2.48978Z" fill="#4616CB"/>
<path d="M2.96187 7.4088L-0.000976562 10.3716L23.5748 33.9474L26.5377 30.9846L2.96187 7.4088Z" fill="#4616CB"/>
<path d="M20.9835 15.5871L18.3655 18.2051L23.6036 23.4433L26.2216 20.8253L20.9835 15.5871Z" fill="#4616CB"/>
<path d="M28.7081 11.1132H21.3003V14.8156H28.7081V11.1132Z" fill="#4616CB"/>
<path d="M17.5955 0H13.8931V7.40783H17.5955V0Z" fill="#4616CB"/>
</g>
<g clip-path="url(#clip1_118_19196)">
<path d="M44.0629 43.1819L43.0717 42.9325C42.0584 42.6853 41.7102 42.4567 41.7102 41.9693C41.7102 41.3595 42.2757 41.0061 43.0628 41.0061C43.85 41.0061 44.5551 41.4196 44.6438 42.2696H45.8079C45.6882 41.0362 44.7924 40.043 43.0429 40.043C41.6592 40.043 40.5262 40.8514 40.5262 42.0525C40.5262 43.048 41.1914 43.6993 42.5351 44.0319L43.5307 44.2629C44.4177 44.48 44.8323 44.7918 44.8323 45.3716C44.8323 46.0345 44.187 46.4271 43.3112 46.4271C42.8698 46.4391 42.4408 46.2739 42.1131 45.9656C41.7854 45.6574 41.584 45.2297 41.5506 44.771H40.3865C40.4973 46.0645 41.4819 47.3926 43.3023 47.3926C44.8922 47.3926 46.0075 46.5103 46.0075 45.3138C46.0031 44.1982 45.3556 43.4938 44.0629 43.1819Z" fill="#4616CB"/>
<path d="M50.0603 40.043C48.1311 40.043 46.8074 41.6806 46.8074 43.7201C46.8074 45.7596 48.1378 47.3996 50.0603 47.3996C51.9827 47.3996 53.3131 45.7619 53.3131 43.7201C53.3131 41.6783 51.9894 40.043 50.0603 40.043ZM50.0603 46.4341C48.8474 46.4341 47.9914 45.3577 47.9914 43.7201C47.9914 42.0825 48.8474 41.0061 50.0603 41.0061C51.2732 41.0061 52.1401 42.0733 52.1401 43.7201C52.1401 45.367 51.2754 46.4341 50.0603 46.4341Z" fill="#4616CB"/>
<path d="M55.7021 40.1469H54.5779V47.2956H58.6844V46.3325H55.7021V40.1469Z" fill="#4616CB"/>
<path d="M63.5179 44.5909C63.5179 45.8335 62.9524 46.4387 61.9967 46.4387C61.0411 46.4387 60.4645 45.8382 60.4645 44.5909V40.1469H59.3403V44.4569C59.3403 46.4341 60.3359 47.3996 62.0012 47.3996C63.6664 47.3996 64.6465 46.4341 64.6465 44.4569V40.1469H63.5223L63.5179 44.5909Z" fill="#4616CB"/>
<path d="M65.5178 41.1101H67.7463V47.2956H68.8705V41.1101H71.0879V40.1469H65.5178V41.1101Z" fill="#4616CB"/>
<path d="M73.1572 40.1469H72.033V47.2956H73.1572V40.1469Z" fill="#4616CB"/>
<path d="M80.9264 43.7201C80.9264 41.6806 79.596 40.043 77.6735 40.043C75.7511 40.043 74.4207 41.6806 74.4207 43.7201C74.4207 45.7596 75.7511 47.3996 77.6735 47.3996C79.596 47.3996 80.9264 45.7619 80.9264 43.7201ZM75.6047 43.7201C75.6047 42.0733 76.4606 41.0061 77.6735 41.0061C78.8864 41.0061 79.7512 42.0733 79.7512 43.7201C79.7512 45.367 78.8975 46.4341 77.6735 46.4341C76.4495 46.4341 75.6047 45.3577 75.6047 43.7201Z" fill="#4616CB"/>
<path d="M87.978 47.2956V40.1469H86.8538V47.067L84.4169 40.1469H82.1885V47.2956H83.3127V40.3733L85.7518 47.2956H87.978Z" fill="#4616CB"/>
<path d="M92.871 43.1819L91.8776 42.9325C90.8621 42.6853 90.5139 42.4567 90.5139 41.9693C90.5139 41.3595 91.0816 41.0061 91.8665 41.0061C92.6515 41.0061 93.3588 41.4196 93.4497 42.2696H94.6116C94.4941 41.0362 93.5983 40.043 91.8466 40.043C90.4652 40.043 89.3321 40.8514 89.3321 42.0525C89.3321 43.048 89.9973 43.6993 91.341 44.0319L92.3344 44.2629C93.2213 44.48 93.6382 44.7918 93.6382 45.3716C93.6382 46.0345 92.9907 46.4271 92.1171 46.4271C91.6755 46.4392 91.2463 46.274 90.9182 45.9658C90.5901 45.6576 90.3882 45.2299 90.3543 44.771H89.1924C89.301 46.0645 90.2855 47.3926 92.106 47.3926C93.6981 47.3926 94.8112 46.5103 94.8112 45.3138C94.8112 44.1982 94.1659 43.4938 92.871 43.1819Z" fill="#4616CB"/>
<path d="M102.759 41.1101V40.1469H98.344V47.2956H99.4682V44.1774H102.699V43.2143H99.4682V41.1101H102.759Z" fill="#4616CB"/>
<path d="M103.555 43.7201C103.555 45.7619 104.885 47.3996 106.808 47.3996C108.73 47.3996 110.061 45.7619 110.061 43.7201C110.061 41.6783 108.73 40.043 106.808 40.043C104.885 40.043 103.555 41.6806 103.555 43.7201ZM108.888 43.7201C108.888 45.3577 108.032 46.4341 106.808 46.4341C105.584 46.4341 104.739 45.3577 104.739 43.7201C104.739 42.0825 105.595 41.0061 106.808 41.0061C108.021 41.0061 108.888 42.0733 108.888 43.7201Z" fill="#4616CB"/>
<path d="M116.367 47.2956L114.795 44.2075C115.731 43.9072 116.259 43.2328 116.259 42.2696C116.259 40.9138 115.223 40.1469 113.502 40.1469H111.325V47.2956H112.449V44.3946H113.653L115.137 47.2956H116.367ZM113.602 43.4314H112.449V41.1101H113.602C114.567 41.1101 115.083 41.5143 115.083 42.265C115.083 43.0156 114.567 43.4314 113.602 43.4314Z" fill="#4616CB"/>
<path d="M121.032 40.3733L123.469 47.2956H125.698V40.1469H124.573V47.067L122.136 40.1469H119.908V47.2956H121.032V40.3733Z" fill="#4616CB"/>
<path d="M127.369 47.2956H131.536V46.3325H128.491V44.1035H131.367V43.1404H128.491V41.1101H131.456V40.1469H127.369V47.2956Z" fill="#4616CB"/>
<path d="M137.206 47.2956H138.51L135.982 43.4938L138.202 40.1469H136.898L135.277 42.5906L133.645 40.1469H132.332L134.561 43.4822L132.024 47.2956H133.337L135.266 44.383L137.206 47.2956Z" fill="#4616CB"/>
<path d="M141.932 47.2956V41.1101H144.149V40.1469H138.579V41.1101H140.807V47.2956H141.932Z" fill="#4616CB"/>
<path d="M149.621 45.9698H149.641V47.2956H150.694V43.4938H147.288V44.4361H149.605V44.6532C149.605 45.7411 148.809 46.4341 147.725 46.4341C146.352 46.4341 145.556 45.3577 145.556 43.7201C145.556 42.0825 146.332 41.0061 147.685 41.0061C148.74 41.0061 149.317 41.6483 149.459 42.4451H150.623C150.412 41.0593 149.31 40.043 147.638 40.043C145.643 40.043 144.377 41.6806 144.377 43.7201C144.377 45.7596 145.678 47.3996 147.587 47.3996C148.027 47.4119 148.46 47.2808 148.824 47.0244C149.189 46.768 149.467 46.3993 149.621 45.9698Z" fill="#4616CB"/>
<path d="M156.255 46.3325H153.211V44.1035H156.084V43.1404H153.211V41.1101H156.175V40.1469H152.086V47.2956H156.255V46.3325Z" fill="#4616CB"/>
<path d="M158.741 40.3733L161.178 47.2956H163.406V40.1469H162.282V47.067L159.845 40.1469H157.617V47.2956H158.741V40.3733Z" fill="#4616CB"/>
<path d="M74.4606 50.8712H73.3364V58.0199H74.4606V50.8712Z" fill="#4616CB"/>
<path d="M80.7959 57.7912L78.3591 50.8712H76.1328V58.0199H77.2548V51.0998L79.6917 58.0199H81.9202V50.8712H80.7959V57.7912Z" fill="#4616CB"/>
<path d="M83.5923 58.0199H84.7165V54.9017H87.9494V53.9385H84.7165V51.8343H88.0093V50.8712H83.5923V58.0199Z" fill="#4616CB"/>
<path d="M94.1956 52.9961C94.1956 51.638 93.1601 50.8712 91.4394 50.8712H89.262V58.0314H90.3862V55.1188H91.5902L93.0714 58.0199H94.3043L92.741 54.9317C93.6679 54.6314 94.1956 53.9593 94.1956 52.9961ZM91.5348 54.151H90.3817V51.8412H91.5348C92.4993 51.8412 93.0182 52.2455 93.0182 52.9961C93.0182 53.7468 92.5038 54.1556 91.5392 54.1556L91.5348 54.151Z" fill="#4616CB"/>
<path d="M97.012 50.8712L94.7437 58.0314H95.8967L96.5331 56.0219H99.6263L100.263 58.0314H101.407L99.1496 50.8712H97.012ZM96.8324 55.0287L98.0764 51.1021L99.3181 55.0287H96.8324Z" fill="#4616CB"/>
<path d="M105.426 53.9061L104.431 53.659C103.417 53.4095 103.069 53.1808 103.069 52.6935C103.069 52.0837 103.635 51.7303 104.422 51.7303C105.209 51.7303 105.914 52.1461 106.003 52.9961H107.167C107.047 51.7626 106.152 50.7672 104.402 50.7672C103.018 50.7672 101.885 51.5756 101.885 52.7766C101.885 53.7722 102.551 54.4258 103.894 54.7561L104.888 54.9871C105.775 55.2181 106.191 55.516 106.191 56.0958C106.191 56.7587 105.544 57.1536 104.67 57.1536C104.229 57.1656 103.799 57 103.472 56.6913C103.144 56.3826 102.943 55.9543 102.91 55.4952H101.746C101.854 56.791 102.839 58.1168 104.659 58.1168C106.251 58.1168 107.364 57.2368 107.364 56.038C107.376 54.9224 106.71 54.2133 105.426 53.9061Z" fill="#4616CB"/>
<path d="M107.703 51.8343H109.931V58.0199H111.056V51.8343H113.273V50.8712H107.703V51.8343Z" fill="#4616CB"/>
<path d="M119.152 52.9961C119.152 51.638 118.119 50.8712 116.398 50.8712H114.218V58.0314H115.342V55.1188H116.547L118.019 58.0199H119.252L117.682 54.9317C118.624 54.6314 119.152 53.9593 119.152 52.9961ZM116.491 54.151H115.336V51.8412H116.491C117.456 51.8412 117.972 52.2455 117.972 52.9961C117.972 53.7468 117.462 54.1556 116.498 54.1556L116.491 54.151Z" fill="#4616CB"/>
<path d="M124.594 55.3151C124.594 56.5601 124.026 57.1629 123.073 57.1629C122.119 57.1629 121.541 56.5624 121.541 55.3151V50.8712H120.417V55.1812C120.417 57.1606 121.412 58.1238 123.077 58.1238C124.743 58.1238 125.723 57.1606 125.723 55.1812V50.8712H124.598L124.594 55.3151Z" fill="#4616CB"/>
<path d="M130.243 57.1606C128.95 57.1606 128.103 56.1143 128.103 54.4467C128.103 52.779 128.919 51.7304 130.174 51.7304C131.188 51.7304 131.855 52.3517 132.044 53.4719H133.208C132.986 51.8343 131.715 50.7672 130.134 50.7672C128.234 50.7672 126.921 52.4048 126.921 54.4467C126.921 56.5485 128.263 58.1238 130.163 58.1238C131.744 58.1238 133.019 57.0659 133.268 55.4306H132.103C131.924 56.5231 131.219 57.1606 130.243 57.1606Z" fill="#4616CB"/>
<path d="M133.556 51.8343H135.784V58.0199H136.909V51.8343H139.126V50.8712H133.556V51.8343Z" fill="#4616CB"/>
<path d="M144.183 55.3151C144.183 56.5601 143.616 57.1629 142.66 57.1629C141.704 57.1629 141.13 56.5624 141.13 55.3151V50.8712H140.006V55.1812C140.006 57.1606 140.999 58.1238 142.666 58.1238C144.334 58.1238 145.314 57.1606 145.314 55.1812V50.8712H144.183V55.3151Z" fill="#4616CB"/>
<path d="M151.838 52.9961C151.838 51.638 150.803 50.8712 149.082 50.8712H146.905V58.0314H148.029V55.1188H149.233L150.714 58.0199H151.945L150.373 54.9317C151.311 54.6314 151.838 53.9593 151.838 52.9961ZM149.178 54.151H148.025V51.8412H149.178C150.142 51.8412 150.661 52.2455 150.661 52.9961C150.661 53.7468 150.147 54.1556 149.182 54.1556L149.178 54.151Z" fill="#4616CB"/>
<path d="M154.295 54.8278H157.169V53.8646H154.295V51.8343H157.259V50.8712H153.171V58.0199H157.339V57.0567H154.295V54.8278Z" fill="#4616CB"/>
<path d="M161.922 53.9061L160.927 53.659C159.913 53.4095 159.565 53.1808 159.565 52.6935C159.565 52.0837 160.131 51.7303 160.918 51.7303C161.705 51.7303 162.41 52.1461 162.499 52.9961H163.663C163.543 51.7626 162.647 50.7672 160.898 50.7672C159.514 50.7672 158.381 51.5756 158.381 52.7766C158.381 53.7722 159.046 54.4258 160.39 54.7561L161.383 54.9871C162.27 55.2181 162.687 55.516 162.687 56.0958C162.687 56.7587 162.04 57.1536 161.166 57.1536C160.724 57.1656 160.295 57 159.967 56.6913C159.64 56.3826 159.438 55.9543 159.406 55.4952H158.241C158.35 56.791 159.335 58.1168 161.155 58.1168C162.747 58.1168 163.86 57.2368 163.86 56.038C163.862 54.9224 163.217 54.2133 161.922 53.9061Z" fill="#4616CB"/>
</g>
<defs>
<clipPath id="clip0_118_19196">
<rect width="164" height="36.1192" fill="white"/>
</clipPath>
<clipPath id="clip1_118_19196">
<rect width="124" height="18.1656" fill="white" transform="translate(40 40.1191)"/>
</clipPath>
</defs>
</svg>
