<svg width="16" height="16" viewBox="0 0 16 16" fill="none" xmlns="http://www.w3.org/2000/svg">
<path fill-rule="evenodd" clip-rule="evenodd" d="M0.615479 14.1539C0.615479 14.8308 1.16932 15.3846 1.84625 15.3846H14.8924C15.1693 15.3846 15.3847 15.1693 15.3847 14.8923V14.0308C15.3847 13.7539 15.1693 13.5385 14.8924 13.5385H2.92317C2.67702 13.5385 2.46163 13.3231 2.46163 13.0769V1.4154C2.46163 1.13848 2.24625 0.923096 1.96932 0.923096H1.10779C0.830863 0.923096 0.615479 1.13848 0.615479 1.4154V14.1539ZM15.2924 4.49233C15.2924 3.96925 14.8924 3.56925 14.3693 3.56925C14.0924 3.56925 13.877 3.69233 13.6924 3.84617L11.0462 6.49233L9.23086 4.76925L9.20009 4.73848L9.13856 4.67694C9.10779 4.67694 9.10779 4.64617 9.07702 4.64617C9.04625 4.6154 9.01548 4.6154 8.98471 4.58463C8.95394 4.58463 8.95394 4.55386 8.92317 4.55386C8.8924 4.55386 8.86163 4.5231 8.80009 4.5231C8.76932 4.5231 8.76932 4.5231 8.73855 4.49233C8.67702 4.49233 8.61548 4.46156 8.55394 4.46156C8.4924 4.46156 8.43086 4.46156 8.36932 4.49233C8.33856 4.49233 8.33856 4.49233 8.30779 4.5231C8.27702 4.5231 8.21548 4.55386 8.18471 4.55386C8.15394 4.55386 8.15394 4.58463 8.12317 4.58463C8.0924 4.6154 8.06163 4.6154 8.03086 4.64617C8.00009 4.64617 8.00009 4.67694 7.96932 4.70771C7.93856 4.73848 7.90779 4.73848 7.87702 4.76925L4.36932 8.30771C4.18471 8.49233 4.06163 8.70771 4.06163 8.98463C4.06163 9.50771 4.46163 9.90771 4.98471 9.90771C5.20009 9.90771 5.41548 9.8154 5.56932 9.69233L8.58471 6.70771L10.3386 8.43079C10.3693 8.46156 10.4001 8.46156 10.4309 8.49233L10.4924 8.55387C10.5232 8.58463 10.5539 8.58463 10.5847 8.6154C10.6155 8.6154 10.6155 8.64617 10.6462 8.64617C10.677 8.67694 10.7386 8.67694 10.7693 8.67694C10.8001 8.67694 10.8001 8.67694 10.8309 8.70771C10.8924 8.70771 10.9539 8.73848 11.0155 8.73848C11.077 8.73848 11.1386 8.73848 11.2001 8.70771H11.2616C11.2924 8.70771 11.3232 8.67694 11.3847 8.67694C11.4155 8.67694 11.4155 8.64617 11.4462 8.64617C11.477 8.64617 11.5078 8.6154 11.5386 8.58463C11.5693 8.58463 11.5693 8.55387 11.6001 8.55387L11.6309 8.5231L11.6616 8.49233L11.6924 8.46156L15.0155 5.16925C15.1693 4.98463 15.2924 4.76925 15.2924 4.49233Z" fill="#4616CB"/>
</svg>
