<svg width="80" height="79" viewBox="0 0 80 79" fill="none" xmlns="http://www.w3.org/2000/svg">
<g clip-path="url(#clip0_118_19672)">
<path d="M75.0141 69.9559L58.3071 53.2489C61.7899 48.5969 63.3809 42.7981 62.7599 37.0202C62.1389 31.2422 59.3519 25.914 54.9601 22.1084C50.5684 18.3027 44.8979 16.3022 39.0903 16.5095C33.2828 16.7169 27.7694 19.1167 23.6602 23.2259C19.551 27.3351 17.1512 32.8484 16.9438 38.656C16.7365 44.4636 18.737 50.134 22.5427 54.5258C26.3483 58.9176 31.6765 61.7045 37.4545 62.3255C43.2325 62.9466 49.0312 61.3555 53.6832 57.8728L70.3902 74.5798L75.0141 69.9559ZM39.9997 55.918C36.7655 55.918 33.6039 54.9589 30.9147 53.1621C28.2255 51.3652 26.1296 48.8113 24.8919 45.8233C23.6542 42.8352 23.3304 39.5473 23.9613 36.3752C24.5923 33.2031 26.1497 30.2893 28.4367 28.0024C30.7236 25.7154 33.6374 24.158 36.8095 23.527C39.9816 22.896 43.2695 23.2199 46.2576 24.4576C49.2456 25.6953 51.7996 27.7912 53.5964 30.4804C55.3933 33.1696 56.3523 36.3312 56.3523 39.5654C56.3479 43.901 54.6237 48.0578 51.5579 51.1236C48.4921 54.1893 44.3354 55.9136 39.9997 55.918Z" fill="#4616CB"/>
<path d="M29.6489 1.56961L23.5034 3.8064L26.8586 13.0247L33.0041 10.7879L29.6489 1.56961Z" fill="#4616CB"/>
<path d="M14.5623 9.50318L9.93872 14.1284L16.8766 21.0639L21.5002 16.4386L14.5623 9.50318Z" fill="#4616CB"/>
<path d="M4.24216 23.0718L2.00537 29.2173L11.2237 32.5725L13.4604 26.4269L4.24216 23.0718Z" fill="#4616CB"/>
</g>
<defs>
<clipPath id="clip0_118_19672">
<rect width="78.4847" height="78.4847" fill="white" transform="translate(0.757568 0.323242)"/>
</clipPath>
</defs>
</svg>
