<svg width="88" height="88" viewBox="0 0 88 88" fill="none" xmlns="http://www.w3.org/2000/svg">
<g clip-path="url(#clip0_118_19592)">
<path d="M32.9976 0H25.6648V14.6687H32.9976V0Z" fill="#4616CB"/>
<path d="M32.9976 44H25.6648V58.6687H32.9976V44Z" fill="#4616CB"/>
<path d="M58.6687 25.668H44V33.0008H58.6687V25.668Z" fill="#4616CB"/>
<path d="M14.6687 25.668H0V33.0008H14.6687V25.668Z" fill="#4616CB"/>
<path d="M42.2967 37.1133L37.1094 42.3005L47.4795 52.6707L52.6668 47.4834L42.2967 37.1133Z" fill="#4616CB"/>
<path d="M11.1861 6.00022L5.99878 11.1875L16.3689 21.5577L21.5562 16.3704L11.1861 6.00022Z" fill="#4616CB"/>
<path d="M47.4815 6.00044L37.1113 16.3706L42.2986 21.5579L52.6688 11.1877L47.4815 6.00044Z" fill="#4616CB"/>
<path d="M16.3699 37.1123L5.99976 47.4824L11.187 52.6697L21.5572 42.2995L16.3699 37.1123Z" fill="#4616CB"/>
<path d="M61.0198 44.2693L54.2451 47.0754L58.4543 57.2374L65.229 54.4313L61.0198 44.2693Z" fill="#4616CB"/>
<path d="M73.6506 74.7576L66.876 77.5637L71.0852 87.7257L77.8598 84.9195L73.6506 74.7576Z" fill="#4616CB"/>
<path d="M54.4859 66.8213L44.324 71.0305L47.1301 77.8052L57.2921 73.5959L54.4859 66.8213Z" fill="#4616CB"/>
<path d="M84.9745 54.1931L74.8125 58.4023L77.6186 65.177L87.7806 60.9678L84.9745 54.1931Z" fill="#4616CB"/>
<path d="M47.1304 54.1953L44.3242 60.97L54.4862 65.1792L57.2923 58.4046L47.1304 54.1953Z" fill="#4616CB"/>
<path d="M77.6174 66.8284L74.8113 73.603L84.9732 77.8122L87.7794 71.0376L77.6174 66.8284Z" fill="#4616CB"/>
<path d="M58.4534 74.7577L54.2441 84.9197L61.0188 87.7258L65.228 77.5639L58.4534 74.7577Z" fill="#4616CB"/>
<path d="M71.0801 44.2694L66.8708 54.4314L73.6455 57.2375L77.8547 47.0756L71.0801 44.2694Z" fill="#4616CB"/>
</g>
<defs>
<clipPath id="clip0_118_19592">
<rect width="88" height="88" fill="white"/>
</clipPath>
</defs>
</svg>
