<svg width="33" height="33" viewBox="0 0 33 33" fill="none" xmlns="http://www.w3.org/2000/svg">
<path fill-rule="evenodd" clip-rule="evenodd" d="M30.9854 5.22968C30.3854 3.76301 29.6521 2.42968 28.7854 1.16301C28.3854 0.629679 27.6521 0.563013 27.2521 1.02968C25.9854 2.22968 24.1854 2.89635 22.3187 2.89635C20.3187 2.89635 18.5187 2.09635 17.1854 0.763013C16.7854 0.363013 16.1187 0.363013 15.7187 0.763013C14.3854 2.09635 12.5854 2.89635 10.5854 2.89635C8.71873 2.89635 6.9854 2.22968 5.65207 1.02968C5.1854 0.629679 4.45207 0.696346 4.11873 1.16301C3.25207 2.36301 2.51873 3.76301 1.91873 5.22968C1.91873 5.22968 0.318734 8.49634 0.5854 13.8963V14.4297C0.5854 14.6963 0.652067 14.963 0.652067 15.2297V15.2963C1.5854 24.2297 8.1854 31.363 16.5187 32.4963C24.9187 31.2963 31.4521 24.163 32.3854 15.2297V15.0297C32.3854 14.8963 32.3854 14.6963 32.4521 14.4963C32.9187 8.76301 30.9854 5.22968 30.9854 5.22968ZM26.4522 12.0964L15.3855 23.363C15.1188 23.6297 14.7855 23.6297 14.5188 23.363L8.05216 16.8297C7.78549 16.563 7.78549 16.2297 8.05216 15.963L8.91883 15.0964C9.18549 14.8297 9.51883 14.8297 9.78549 15.0964L14.6522 20.0297C14.7855 20.163 15.0522 20.163 15.2522 20.0297L24.7855 10.4297C25.0522 10.163 25.3855 10.163 25.6522 10.4297L26.5188 11.2964C26.7188 11.4964 26.7188 11.8964 26.4522 12.0964Z" fill="white"/>
</svg>
