<svg width="16" height="16" viewBox="0 0 16 16" fill="none" xmlns="http://www.w3.org/2000/svg">
<path d="M14.6601 2.81536L14.1973 3.00467L14.3244 3.31536H14.6601V2.81536ZM13.6447 0.938433L14.0574 0.656091L14.0512 0.647125L14.0447 0.638433L13.6447 0.938433ZM12.937 0.876895L13.2809 1.23987L13.2997 1.22201L13.3166 1.20229L12.937 0.876895ZM2.96778 0.876895L3.30236 0.505139L3.29317 0.497267L2.96778 0.876895ZM2.26008 0.938433L2.66543 1.23118L2.66695 1.22905L2.26008 0.938433ZM1.2447 2.81536L1.69373 3.03529L1.70112 3.02021L1.70747 3.00467L1.2447 2.81536ZM0.629316 6.81536H1.12932V6.80302L1.12871 6.79069L0.629316 6.81536ZM0.660085 7.46151H0.160085V7.48756L0.162792 7.51347L0.660085 7.46151ZM7.98316 15.4L7.91578 15.8954L7.98486 15.9048L8.05387 15.8949L7.98316 15.4ZM15.3062 7.43074L15.8035 7.4827L15.8062 7.45679V7.43074H15.3062ZM15.337 7.09228L15.8113 7.25039L15.8305 7.19307L15.8354 7.13284L15.337 7.09228ZM7.46008 11.1846L7.81365 11.5382L7.81679 11.535L7.46008 11.1846ZM7.06008 11.1846L6.70472 11.5363L6.70653 11.5381L7.06008 11.1846ZM4.07547 8.1692L4.43084 7.81746L4.42902 7.81565L4.07547 8.1692ZM4.07547 7.7692L4.42902 8.12276V8.12276L4.07547 7.7692ZM4.47547 7.3692L4.12192 7.01565L4.47547 7.3692ZM4.87547 7.3692L5.23143 7.01805L5.22902 7.01565L4.87547 7.3692ZM7.12162 9.64613L6.76566 9.99727L6.76807 9.99968L7.12162 9.64613ZM7.39855 9.64613L7.6759 10.0622L7.71782 10.0342L7.75333 9.99845L7.39855 9.64613ZM11.7985 5.21536L11.445 4.8618L11.4438 4.86304L11.7985 5.21536ZM12.1985 5.21536L12.5521 4.8618L12.1985 5.21536ZM12.5985 5.61536L12.245 5.96891L12.5985 5.61536ZM12.5678 5.98459L12.2678 5.58459L12.2375 5.60726L12.2111 5.63421L12.5678 5.98459ZM15.1229 2.62604C14.8317 1.91433 14.476 1.26793 14.0574 0.656091L13.232 1.22078C13.6134 1.77817 13.9346 2.36254 14.1973 3.00467L15.1229 2.62604ZM14.0447 0.638433C13.7044 0.184665 12.9877 0.0494173 12.5574 0.551499L13.3166 1.20229C13.3087 1.21149 13.2962 1.22103 13.2807 1.22703C13.2662 1.23269 13.2542 1.2333 13.2469 1.23265C13.2323 1.23136 13.2352 1.22571 13.2447 1.23843L14.0447 0.638433ZM12.5931 0.513919C12.1112 0.970469 11.4079 1.23843 10.6601 1.23843V2.23843C11.6353 2.23843 12.5936 1.89101 13.2809 1.23987L12.5931 0.513919ZM10.6601 1.23843C9.87501 1.23843 9.16991 0.925764 8.64441 0.400265L7.9373 1.10737C8.64257 1.81264 9.59901 2.23843 10.6601 2.23843V1.23843ZM8.64441 0.400265C8.26453 0.0203871 7.64025 0.0203871 7.26038 0.400265L7.96748 1.10737C7.95989 1.11496 7.953 1.11536 7.95239 1.11536C7.95179 1.11536 7.94489 1.11496 7.9373 1.10737L8.64441 0.400265ZM7.26038 0.400265C6.73488 0.925764 6.02978 1.23843 5.2447 1.23843V2.23843C6.30578 2.23843 7.26221 1.81264 7.96748 1.10737L7.26038 0.400265ZM5.2447 1.23843C4.50434 1.23843 3.82411 0.974912 3.30226 0.505248L2.63329 1.24854C3.34221 1.88657 4.26198 2.23843 5.2447 2.23843V1.23843ZM3.29317 0.497267C2.87997 0.143095 2.19632 0.167476 1.85322 0.647814L2.66695 1.22905C2.65766 1.24206 2.64732 1.24956 2.64076 1.25306C2.63484 1.25622 2.63263 1.25592 2.6348 1.25573C2.63689 1.25554 2.63956 1.25581 2.64168 1.25646C2.64334 1.25697 2.64321 1.25724 2.64238 1.25652L3.29317 0.497267ZM1.85475 0.645688C1.42625 1.23899 1.06995 1.92199 0.781927 2.62604L1.70747 3.00467C1.9733 2.35488 2.29392 1.74557 2.66542 1.23118L1.85475 0.645688ZM1.2447 2.81536C0.795669 2.59542 0.795589 2.59559 0.795506 2.59576C0.795475 2.59582 0.795389 2.59599 0.795326 2.59612C0.795201 2.59638 0.795064 2.59666 0.794917 2.59696C0.794622 2.59757 0.794282 2.59827 0.793899 2.59906C0.793133 2.60065 0.792194 2.60261 0.791086 2.60494C0.78887 2.60959 0.785983 2.61573 0.782474 2.62333C0.775457 2.63853 0.76595 2.65959 0.754352 2.68639C0.731158 2.73997 0.699583 2.81652 0.662818 2.915C0.589301 3.11192 0.494924 3.39681 0.405308 3.76139C0.226054 4.49062 0.065694 5.53936 0.129924 6.84002L1.12871 6.79069C1.06986 5.59905 1.21719 4.64778 1.3764 4.00009C1.45601 3.67621 1.53856 3.42841 1.59966 3.26475C1.6302 3.18294 1.65536 3.12223 1.67207 3.08363C1.68042 3.06433 1.68666 3.05056 1.6904 3.04246C1.69227 3.03841 1.69351 3.03578 1.69409 3.03458C1.69437 3.03398 1.69449 3.03374 1.69443 3.03385C1.6944 3.03391 1.69433 3.03406 1.69421 3.0343C1.69416 3.03442 1.69409 3.03456 1.69401 3.03473C1.69397 3.03481 1.6939 3.03495 1.69388 3.03499C1.69381 3.03514 1.69373 3.03529 1.2447 2.81536ZM0.129316 6.81536V7.06151H1.12932V6.81536H0.129316ZM0.129316 7.06151C0.129316 7.15943 0.141542 7.25199 0.148561 7.30814C0.156927 7.37506 0.160085 7.40558 0.160085 7.43074H1.16008C1.16008 7.33282 1.14786 7.24026 1.14084 7.18411C1.13247 7.11719 1.12932 7.08667 1.12932 7.06151H0.129316ZM0.160085 7.43074V7.46151H1.16008V7.43074H0.160085ZM0.162792 7.51347C0.615336 11.845 3.82112 15.3385 7.91578 15.8954L8.05054 14.9045C4.4529 14.4153 1.56637 11.3242 1.15738 7.40955L0.162792 7.51347ZM8.05387 15.8949C12.1774 15.3059 15.3511 11.8135 15.8035 7.4827L14.8089 7.37878C14.3999 11.2942 11.5428 14.3864 7.91245 14.905L8.05387 15.8949ZM15.8062 7.43074V7.33843H14.8062V7.43074H15.8062ZM15.8062 7.33843C15.8062 7.30678 15.8065 7.28917 15.808 7.27216C15.8095 7.25605 15.8115 7.24993 15.8113 7.25039L14.8627 6.93417C14.8032 7.11268 14.8062 7.2808 14.8062 7.33843H15.8062ZM15.8354 7.13284C15.9483 5.74514 15.7712 4.61846 15.5626 3.83315C15.4583 3.4406 15.3461 3.13313 15.2582 2.9205C15.2143 2.81416 15.1763 2.73144 15.1484 2.67354C15.1345 2.64459 15.123 2.62183 15.1146 2.60542C15.1104 2.59721 15.1069 2.59059 15.1042 2.58558C15.1029 2.58307 15.1018 2.58096 15.1008 2.57925C15.1004 2.5784 15.1 2.57765 15.0996 2.577C15.0994 2.57667 15.0993 2.57637 15.0991 2.5761C15.099 2.57596 15.0989 2.57577 15.0989 2.57571C15.0988 2.57553 15.0987 2.57535 14.6601 2.81536C14.2215 3.05536 14.2214 3.0552 14.2213 3.05504C14.2213 3.055 14.2212 3.05485 14.2211 3.05476C14.221 3.05459 14.2209 3.05444 14.2209 3.05431C14.2207 3.05406 14.2207 3.0539 14.2206 3.05384C14.2206 3.05373 14.2207 3.054 14.2211 3.05465C14.2218 3.05597 14.2233 3.05883 14.2255 3.06321C14.23 3.07198 14.2375 3.08684 14.2476 3.10765C14.2676 3.14928 14.2977 3.21463 14.3341 3.30252C14.4067 3.47836 14.5042 3.74396 14.5961 4.08987C14.7798 4.78148 14.9411 5.79326 14.8387 7.05172L15.8354 7.13284ZM12.2111 5.63421L7.10338 10.8342L7.81679 11.535L12.9245 6.33496L12.2111 5.63421ZM7.10653 10.831C7.11955 10.818 7.17181 10.7769 7.26009 10.7769C7.34836 10.7769 7.40062 10.818 7.41364 10.831L6.70653 11.5381C6.84263 11.6742 7.03335 11.7769 7.26009 11.7769C7.48682 11.7769 7.67754 11.6742 7.81364 11.5381L7.10653 10.831ZM7.41545 10.8329L4.43083 7.81747L3.72011 8.52094L6.70472 11.5363L7.41545 10.8329ZM4.42902 7.81565C4.44205 7.82867 4.48316 7.88093 4.48316 7.9692C4.48316 8.05748 4.44205 8.10973 4.42902 8.12276L3.72192 7.41565C3.58582 7.55175 3.48316 7.74247 3.48316 7.9692C3.48316 8.19594 3.58582 8.38666 3.72192 8.52276L4.42902 7.81565ZM4.42902 8.12276L4.82902 7.72276L4.12192 7.01565L3.72192 7.41565L4.42902 8.12276ZM4.82902 7.72276C4.816 7.73578 4.76374 7.7769 4.67547 7.7769C4.5872 7.7769 4.53494 7.73578 4.52192 7.72276L5.22902 7.01565C5.09292 6.87955 4.9022 6.7769 4.67547 6.7769C4.44874 6.7769 4.25802 6.87955 4.12192 7.01565L4.82902 7.72276ZM4.51952 7.72034L6.76567 9.99727L7.47757 9.29499L5.23142 7.01806L4.51952 7.72034ZM6.76807 9.99968C6.91705 10.1487 7.10506 10.1923 7.24855 10.1923C7.39669 10.1923 7.54714 10.148 7.6759 10.0622L7.1212 9.2301C7.15765 9.2058 7.2004 9.19228 7.24855 9.19228C7.29204 9.19228 7.38773 9.20513 7.47518 9.29257L6.76807 9.99968ZM7.75333 9.99845L12.1533 5.56768L11.4438 4.86304L7.04376 9.29381L7.75333 9.99845ZM12.1521 5.56891C12.1391 5.58193 12.0868 5.62305 11.9985 5.62305C11.9103 5.62305 11.858 5.58193 11.845 5.56891L12.5521 4.8618C12.416 4.7257 12.2253 4.62305 11.9985 4.62305C11.7718 4.62305 11.5811 4.7257 11.445 4.8618L12.1521 5.56891ZM11.845 5.56891L12.245 5.96891L12.9521 5.2618L12.5521 4.8618L11.845 5.56891ZM12.245 5.96891C12.1758 5.89969 12.1619 5.82272 12.1647 5.77224C12.1679 5.71503 12.1954 5.6389 12.2678 5.58459L12.8678 6.38459C13.2468 6.10035 13.2484 5.55808 12.9521 5.2618L12.245 5.96891Z" fill="#FEDD00"/>
</svg>
