<svg width="555" height="533" viewBox="0 0 555 533" fill="none" xmlns="http://www.w3.org/2000/svg">
<g filter="url(#filter0_d_118_22826)">
<rect x="22" y="15" width="523" height="487" rx="24" fill="white" shape-rendering="crispEdges"/>
<path d="M420.96 467.69H419.96V382.77L386.94 337.71V297.91H387.94V337.38L420.96 382.45V467.69Z" fill="#BDB3D9" fill-opacity="0.4"/>
<path d="M387.5 298.5C386.819 298.502 386.153 298.302 385.586 297.925C385.019 297.548 384.576 297.012 384.315 296.383C384.053 295.755 383.983 295.063 384.115 294.395C384.246 293.727 384.573 293.113 385.054 292.631C385.535 292.149 386.147 291.82 386.815 291.687C387.483 291.553 388.175 291.621 388.804 291.881C389.433 292.141 389.971 292.582 390.349 293.148C390.728 293.714 390.93 294.379 390.93 295.06C390.93 295.971 390.569 296.844 389.926 297.489C389.283 298.134 388.41 298.497 387.5 298.5ZM387.5 292.63C387.016 292.628 386.543 292.77 386.14 293.037C385.738 293.304 385.423 293.685 385.237 294.132C385.052 294.578 385.002 295.069 385.096 295.544C385.19 296.018 385.423 296.453 385.764 296.795C386.106 297.137 386.542 297.37 387.016 297.464C387.49 297.557 387.982 297.508 388.428 297.322C388.874 297.136 389.255 296.822 389.523 296.419C389.79 296.017 389.932 295.543 389.93 295.06C389.935 294.738 389.876 294.417 389.756 294.118C389.637 293.818 389.459 293.546 389.232 293.316C389.006 293.086 388.736 292.903 388.439 292.779C388.142 292.654 387.822 292.59 387.5 292.59V292.63Z" fill="#BDB3D9" fill-opacity="0.4"/>
<path d="M412.46 467.69H411.46V388.22L378.44 343.15V321.07H379.44V342.82L412.46 387.89V467.69Z" fill="#BDB3D9" fill-opacity="0.4"/>
<path d="M378.94 321.62C378.259 321.622 377.593 321.422 377.026 321.045C376.459 320.668 376.016 320.132 375.754 319.503C375.493 318.875 375.423 318.183 375.555 317.515C375.686 316.847 376.013 316.233 376.494 315.751C376.974 315.269 377.587 314.94 378.255 314.807C378.923 314.673 379.615 314.741 380.244 315.001C380.873 315.261 381.411 315.702 381.789 316.268C382.168 316.834 382.37 317.499 382.37 318.18C382.37 319.091 382.009 319.964 381.366 320.609C380.723 321.254 379.85 321.617 378.94 321.62ZM378.94 315.75C378.456 315.748 377.983 315.89 377.58 316.157C377.178 316.424 376.863 316.805 376.677 317.252C376.492 317.698 376.442 318.189 376.536 318.664C376.63 319.138 376.863 319.573 377.204 319.915C377.546 320.257 377.982 320.49 378.456 320.584C378.93 320.677 379.422 320.628 379.868 320.442C380.314 320.256 380.695 319.942 380.963 319.539C381.23 319.137 381.372 318.663 381.37 318.18C381.37 317.535 381.114 316.917 380.658 316.462C380.202 316.006 379.584 315.75 378.94 315.75Z" fill="#BDB3D9" fill-opacity="0.4"/>
<path d="M429.16 332.27H428.16V467.69H429.16V332.27Z" fill="#BDB3D9" fill-opacity="0.4"/>
<path d="M428.66 332.77C427.982 332.77 427.318 332.569 426.754 332.192C426.19 331.815 425.751 331.279 425.491 330.653C425.231 330.026 425.164 329.336 425.296 328.671C425.428 328.006 425.755 327.394 426.235 326.915C426.714 326.435 427.325 326.108 427.991 325.976C428.656 325.844 429.346 325.912 429.973 326.171C430.599 326.431 431.135 326.87 431.512 327.434C431.889 327.998 432.09 328.662 432.09 329.34C432.087 330.249 431.725 331.12 431.082 331.762C430.44 332.405 429.569 332.767 428.66 332.77ZM428.66 326.91C428.179 326.91 427.71 327.053 427.31 327.32C426.91 327.587 426.599 327.966 426.415 328.41C426.231 328.854 426.183 329.343 426.277 329.814C426.37 330.285 426.602 330.718 426.942 331.058C427.282 331.398 427.715 331.63 428.186 331.723C428.657 331.817 429.146 331.769 429.59 331.585C430.034 331.401 430.413 331.09 430.68 330.69C430.947 330.29 431.09 329.821 431.09 329.34C431.087 328.696 430.83 328.08 430.375 327.625C429.92 327.17 429.304 326.913 428.66 326.91Z" fill="#BDB3D9" fill-opacity="0.4"/>
<path d="M437.05 466.95H436.05V396.18L458.46 353.9V267.19H459.46V354.15L437.05 396.43V466.95Z" fill="#BDB3D9" fill-opacity="0.4"/>
<path d="M458.96 267.69C458.279 267.69 457.614 267.488 457.048 267.11C456.482 266.731 456.041 266.193 455.781 265.564C455.521 264.935 455.453 264.243 455.587 263.575C455.72 262.908 456.049 262.295 456.531 261.814C457.013 261.333 457.627 261.007 458.295 260.875C458.963 260.743 459.655 260.813 460.283 261.075C460.912 261.337 461.448 261.779 461.825 262.346C462.202 262.913 462.402 263.579 462.4 264.26C462.397 265.171 462.034 266.043 461.389 266.686C460.744 267.329 459.871 267.69 458.96 267.69ZM458.96 261.82C458.477 261.82 458.006 261.963 457.604 262.231C457.203 262.499 456.89 262.88 456.706 263.326C456.521 263.772 456.473 264.263 456.567 264.736C456.661 265.209 456.893 265.644 457.235 265.985C457.576 266.327 458.011 266.559 458.484 266.653C458.957 266.747 459.448 266.699 459.894 266.514C460.34 266.33 460.721 266.017 460.989 265.616C461.257 265.214 461.4 264.743 461.4 264.26C461.4 263.613 461.143 262.992 460.685 262.535C460.228 262.077 459.607 261.82 458.96 261.82Z" fill="#BDB3D9" fill-opacity="0.4"/>
<path d="M444.89 467.1H443.89V400.69L443.95 400.58L470.32 353.95V304.15H471.32V354.21L471.25 354.32L444.89 400.95V467.1Z" fill="#BDB3D9" fill-opacity="0.4"/>
<path d="M470.82 304.65C470.141 304.65 469.478 304.449 468.914 304.072C468.35 303.695 467.91 303.159 467.651 302.533C467.391 301.906 467.323 301.216 467.456 300.551C467.588 299.886 467.915 299.274 468.394 298.795C468.874 298.315 469.485 297.988 470.151 297.856C470.816 297.724 471.506 297.792 472.132 298.051C472.759 298.311 473.295 298.75 473.672 299.314C474.048 299.879 474.25 300.542 474.25 301.22C474.247 302.129 473.885 303 473.242 303.643C472.599 304.285 471.729 304.647 470.82 304.65ZM470.82 298.79C470.339 298.79 469.869 298.933 469.47 299.2C469.07 299.467 468.759 299.846 468.575 300.29C468.391 300.734 468.343 301.223 468.436 301.694C468.53 302.165 468.762 302.598 469.101 302.938C469.441 303.278 469.874 303.51 470.346 303.603C470.817 303.697 471.306 303.649 471.75 303.465C472.194 303.281 472.573 302.97 472.84 302.57C473.107 302.17 473.25 301.701 473.25 301.22C473.247 300.576 472.99 299.96 472.535 299.505C472.08 299.05 471.463 298.793 470.82 298.79Z" fill="#BDB3D9" fill-opacity="0.4"/>
<path d="M147.03 467.69H146.03V294.22L179.06 249.15V209.68H180.06V249.48L147.03 294.55V467.69Z" fill="#BDB3D9" fill-opacity="0.4"/>
<path d="M179.56 210.23C178.879 210.232 178.212 210.032 177.645 209.654C177.078 209.277 176.635 208.74 176.374 208.111C176.112 207.482 176.043 206.79 176.175 206.121C176.308 205.453 176.636 204.839 177.117 204.358C177.599 203.876 178.213 203.548 178.881 203.416C179.549 203.283 180.242 203.352 180.871 203.614C181.5 203.875 182.037 204.318 182.414 204.885C182.792 205.452 182.992 206.119 182.99 206.8C182.987 207.709 182.625 208.58 181.982 209.223C181.34 209.865 180.469 210.227 179.56 210.23ZM179.56 204.36C179.077 204.358 178.604 204.5 178.202 204.766C177.799 205.033 177.485 205.414 177.298 205.859C177.112 206.305 177.063 206.796 177.156 207.27C177.249 207.744 177.48 208.18 177.821 208.522C178.162 208.864 178.597 209.097 179.07 209.192C179.544 209.287 180.035 209.24 180.481 209.055C180.928 208.871 181.309 208.558 181.578 208.157C181.846 207.755 181.99 207.283 181.99 206.8C181.99 206.155 181.734 205.536 181.279 205.078C180.823 204.621 180.205 204.363 179.56 204.36Z" fill="#BDB3D9" fill-opacity="0.4"/>
<path d="M155.54 467.69H154.54V299.67L154.64 299.53L187.56 254.6V232.84H188.56V254.93L155.54 299.99V467.69Z" fill="#BDB3D9" fill-opacity="0.4"/>
<path d="M188.06 233.39C187.379 233.392 186.712 233.192 186.145 232.814C185.578 232.437 185.135 231.9 184.874 231.271C184.612 230.642 184.543 229.95 184.675 229.281C184.808 228.613 185.136 227.999 185.617 227.518C186.099 227.036 186.713 226.708 187.381 226.576C188.049 226.443 188.742 226.512 189.371 226.774C190 227.035 190.537 227.478 190.914 228.045C191.292 228.612 191.492 229.279 191.49 229.96C191.487 230.869 191.125 231.74 190.482 232.382C189.84 233.025 188.969 233.387 188.06 233.39ZM188.06 227.52C187.577 227.518 187.104 227.659 186.702 227.926C186.299 228.193 185.985 228.574 185.798 229.019C185.612 229.465 185.563 229.956 185.656 230.43C185.749 230.904 185.98 231.34 186.321 231.682C186.662 232.024 187.097 232.257 187.57 232.352C188.044 232.447 188.535 232.4 188.981 232.215C189.428 232.031 189.809 231.718 190.078 231.317C190.346 230.915 190.49 230.443 190.49 229.96C190.492 229.639 190.432 229.32 190.311 229.022C190.19 228.725 190.012 228.454 189.786 228.225C189.56 227.997 189.291 227.815 188.995 227.691C188.699 227.566 188.381 227.501 188.06 227.5V227.52Z" fill="#BDB3D9" fill-opacity="0.4"/>
<path d="M138.84 199.94H137.84V467.7H138.84V199.94Z" fill="#BDB3D9" fill-opacity="0.4"/>
<path d="M138.34 200.44C137.66 200.44 136.994 200.238 136.429 199.86C135.863 199.482 135.422 198.945 135.162 198.316C134.901 197.688 134.833 196.996 134.966 196.329C135.099 195.662 135.426 195.049 135.907 194.568C136.389 194.087 137.002 193.759 137.669 193.626C138.336 193.493 139.028 193.562 139.656 193.822C140.285 194.082 140.822 194.523 141.2 195.089C141.578 195.655 141.78 196.32 141.78 197C141.78 197.912 141.417 198.787 140.772 199.433C140.127 200.078 139.252 200.44 138.34 200.44ZM138.34 194.57C137.857 194.57 137.385 194.713 136.983 194.982C136.582 195.251 136.269 195.632 136.085 196.079C135.9 196.525 135.853 197.016 135.948 197.49C136.043 197.963 136.276 198.398 136.618 198.739C136.96 199.08 137.396 199.311 137.87 199.404C138.344 199.497 138.835 199.448 139.281 199.261C139.726 199.075 140.107 198.761 140.374 198.358C140.64 197.956 140.782 197.483 140.78 197C140.78 196.68 140.717 196.363 140.594 196.068C140.471 195.772 140.291 195.504 140.065 195.278C139.838 195.052 139.569 194.874 139.273 194.752C138.977 194.631 138.66 194.569 138.34 194.57Z" fill="#BDB3D9" fill-opacity="0.4"/>
<path d="M130.95 466.95H129.95V308.2L107.54 265.92V167.94H108.54V265.67L130.95 307.96V466.95Z" fill="#BDB3D9" fill-opacity="0.4"/>
<path d="M108.04 168.44C107.361 168.436 106.698 168.231 106.134 167.851C105.571 167.47 105.134 166.932 104.876 166.303C104.619 165.674 104.554 164.983 104.689 164.317C104.824 163.651 105.153 163.04 105.635 162.561C106.117 162.081 106.73 161.756 107.396 161.625C108.063 161.494 108.754 161.563 109.381 161.824C110.009 162.085 110.545 162.526 110.922 163.091C111.299 163.656 111.5 164.32 111.5 165C111.5 165.453 111.41 165.902 111.236 166.321C111.062 166.74 110.807 167.12 110.486 167.44C110.164 167.759 109.782 168.012 109.363 168.184C108.943 168.356 108.494 168.443 108.04 168.44ZM108.04 162.57C107.558 162.574 107.088 162.721 106.689 162.992C106.29 163.263 105.981 163.646 105.799 164.092C105.618 164.539 105.573 165.03 105.67 165.502C105.767 165.974 106.002 166.407 106.345 166.746C106.688 167.085 107.124 167.314 107.598 167.406C108.071 167.497 108.561 167.446 109.005 167.259C109.45 167.073 109.829 166.758 110.095 166.356C110.361 165.954 110.502 165.482 110.5 165C110.5 164.678 110.436 164.36 110.312 164.063C110.188 163.766 110.007 163.497 109.778 163.271C109.549 163.045 109.278 162.867 108.979 162.746C108.681 162.626 108.362 162.566 108.04 162.57Z" fill="#BDB3D9" fill-opacity="0.4"/>
<path d="M123.11 467.1H122.11V312.73L95.6797 265.99V204.9H96.6797V265.72L123.11 312.47V467.1Z" fill="#BDB3D9" fill-opacity="0.4"/>
<path d="M96.1797 205.4C95.4989 205.4 94.8335 205.198 94.2675 204.82C93.7016 204.441 93.2607 203.903 93.0006 203.274C92.7406 202.645 92.673 201.953 92.8066 201.285C92.9401 200.618 93.2687 200.005 93.7508 199.524C94.2329 199.043 94.8468 198.717 95.5148 198.585C96.1827 198.453 96.8747 198.523 97.5031 198.785C98.1315 199.047 98.6681 199.489 99.0449 200.056C99.4216 200.623 99.6217 201.289 99.6197 201.97C99.6171 202.881 99.2535 203.753 98.6086 204.396C97.9638 205.039 97.0903 205.4 96.1797 205.4ZM96.1797 199.53C95.6971 199.53 95.2254 199.673 94.8241 199.941C94.4229 200.209 94.1101 200.59 93.9255 201.036C93.7408 201.482 93.6925 201.973 93.7866 202.446C93.8808 202.919 94.1132 203.354 94.4544 203.695C94.7956 204.037 95.2304 204.269 95.7037 204.363C96.177 204.457 96.6676 204.409 97.1135 204.224C97.5593 204.04 97.9404 203.727 98.2085 203.326C98.4766 202.924 98.6197 202.453 98.6197 201.97C98.6251 201.647 98.5658 201.326 98.4454 201.025C98.3251 200.725 98.146 200.452 97.9188 200.222C97.6916 199.992 97.4207 199.81 97.1221 199.686C96.8234 199.562 96.5031 199.499 96.1797 199.5V199.53Z" fill="#BDB3D9" fill-opacity="0.4"/>
<g opacity="0.5">
<path d="M136.26 118.09C131.118 118.09 126.091 119.615 121.815 122.472C117.54 125.329 114.207 129.389 112.239 134.14C110.271 138.891 109.757 144.119 110.76 149.162C111.763 154.206 114.239 158.839 117.875 162.475C121.512 166.111 126.144 168.587 131.188 169.59C136.231 170.594 141.459 170.079 146.21 168.111C150.961 166.143 155.021 162.811 157.878 158.535C160.735 154.259 162.26 149.232 162.26 144.09C162.244 137.199 159.5 130.595 154.627 125.723C149.755 120.85 143.151 118.106 136.26 118.09ZM136.26 164.6C132.206 164.604 128.242 163.405 124.87 161.156C121.498 158.906 118.868 155.707 117.315 151.963C115.761 148.218 115.353 144.097 116.142 140.121C116.931 136.145 118.882 132.492 121.748 129.625C124.614 126.758 128.266 124.805 132.242 124.014C136.217 123.223 140.339 123.629 144.084 125.181C147.829 126.732 151.029 129.36 153.28 132.732C155.532 136.103 156.732 140.066 156.73 144.12C156.727 149.549 154.57 154.755 150.732 158.595C146.894 162.435 141.689 164.595 136.26 164.6ZM136.26 118.09C131.118 118.09 126.091 119.615 121.815 122.472C117.54 125.329 114.207 129.389 112.239 134.14C110.271 138.891 109.757 144.119 110.76 149.162C111.763 154.206 114.239 158.839 117.875 162.475C121.512 166.111 126.144 168.587 131.188 169.59C136.231 170.594 141.459 170.079 146.21 168.111C150.961 166.143 155.021 162.811 157.878 158.535C160.735 154.259 162.26 149.232 162.26 144.09C162.244 137.199 159.5 130.595 154.627 125.723C149.755 120.85 143.151 118.106 136.26 118.09ZM136.26 164.6C132.206 164.604 128.242 163.405 124.87 161.156C121.498 158.906 118.868 155.707 117.315 151.963C115.761 148.218 115.353 144.097 116.142 140.121C116.931 136.145 118.882 132.492 121.748 129.625C124.614 126.758 128.266 124.805 132.242 124.014C136.217 123.223 140.339 123.629 144.084 125.181C147.829 126.732 151.029 129.36 153.28 132.732C155.532 136.103 156.732 140.066 156.73 144.12C156.727 149.549 154.57 154.755 150.732 158.595C146.894 162.435 141.689 164.595 136.26 164.6ZM136.26 100.25C127.583 100.246 119.099 102.816 111.882 107.634C104.665 112.452 99.0388 119.302 95.7153 127.318C92.3918 135.334 91.5202 144.155 93.2106 152.666C94.9011 161.178 99.0778 168.996 105.212 175.134C111.347 181.271 119.164 185.451 127.674 187.146C136.185 188.84 145.006 187.972 153.024 184.653C161.041 181.333 167.894 175.71 172.715 168.495C177.537 161.28 180.11 152.798 180.11 144.12C180.11 132.488 175.491 121.333 167.268 113.106C159.045 104.88 147.892 100.255 136.26 100.25ZM136.26 172.63C130.618 172.634 125.102 170.964 120.409 167.833C115.716 164.701 112.057 160.247 109.896 155.036C107.734 149.824 107.167 144.089 108.266 138.555C109.365 133.021 112.081 127.937 116.07 123.947C120.059 119.957 125.141 117.239 130.675 116.138C136.208 115.037 141.944 115.602 147.157 117.762C152.369 119.921 156.824 123.578 159.957 128.27C163.091 132.962 164.762 138.478 164.76 144.12C164.75 151.676 161.744 158.92 156.402 164.264C151.059 169.608 143.816 172.617 136.26 172.63ZM136.26 118.09C131.118 118.09 126.091 119.615 121.815 122.472C117.54 125.329 114.207 129.389 112.239 134.14C110.271 138.891 109.757 144.119 110.76 149.162C111.763 154.206 114.239 158.839 117.875 162.475C121.512 166.111 126.144 168.587 131.188 169.59C136.231 170.594 141.459 170.079 146.21 168.111C150.961 166.143 155.021 162.811 157.878 158.535C160.735 154.259 162.26 149.232 162.26 144.09C162.244 137.199 159.5 130.595 154.627 125.723C149.755 120.85 143.151 118.106 136.26 118.09ZM136.26 164.6C132.206 164.604 128.242 163.405 124.87 161.156C121.498 158.906 118.868 155.707 117.315 151.963C115.761 148.218 115.353 144.097 116.142 140.121C116.931 136.145 118.882 132.492 121.748 129.625C124.614 126.758 128.266 124.805 132.242 124.014C136.217 123.223 140.339 123.629 144.084 125.181C147.829 126.732 151.029 129.36 153.28 132.732C155.532 136.103 156.732 140.066 156.73 144.12C156.727 149.549 154.57 154.755 150.732 158.595C146.894 162.435 141.689 164.595 136.26 164.6Z" fill="#BDB3D9" fill-opacity="0.4"/>
<path d="M141.4 101.04H131.35L132.35 91.02H140.4L141.4 101.04Z" fill="#BDB3D9" fill-opacity="0.4"/>
<path d="M119.17 104.24L110.47 109.26L106.33 100.08L113.29 96.06L119.17 104.24Z" fill="#BDB3D9" fill-opacity="0.4"/>
<path d="M101.52 118.12L96.4998 126.81L88.3198 120.94L92.3398 113.97L101.52 118.12Z" fill="#BDB3D9" fill-opacity="0.4"/>
<path d="M93.1699 138.96V149.01L83.1499 148.01V139.96L93.1699 138.96Z" fill="#BDB3D9" fill-opacity="0.4"/>
<path d="M96.3699 161.19L101.39 169.89L92.2099 174.03L88.1899 167.07L96.3699 161.19Z" fill="#BDB3D9" fill-opacity="0.4"/>
<path d="M110.25 178.84L118.95 183.86L113.07 192.04L106.1 188.02L110.25 178.84Z" fill="#BDB3D9" fill-opacity="0.4"/>
<path d="M131.09 187.19H141.14L140.14 197.21H132.09L131.09 187.19Z" fill="#BDB3D9" fill-opacity="0.4"/>
<path d="M153.32 183.99L162.02 178.97L166.16 188.15L159.2 192.17L153.32 183.99Z" fill="#BDB3D9" fill-opacity="0.4"/>
<path d="M170.97 170.11L175.99 161.41L184.18 167.29L180.15 174.26L170.97 170.11Z" fill="#BDB3D9" fill-opacity="0.4"/>
<path d="M179.32 149.26V139.22L189.34 140.22V148.26L179.32 149.26Z" fill="#BDB3D9" fill-opacity="0.4"/>
<path d="M176.12 127.04L171.1 118.34L180.28 114.19L184.31 121.16L176.12 127.04Z" fill="#BDB3D9" fill-opacity="0.4"/>
<path d="M162.24 109.39L153.55 104.37L159.42 96.19L166.39 100.21L162.24 109.39Z" fill="#BDB3D9" fill-opacity="0.4"/>
<path d="M122.14 148.3L132.82 158.42L146.92 154.24L150.36 139.94L139.68 129.8L125.57 133.98L122.14 148.3ZM131.58 144.23C131.557 143.307 131.808 142.397 132.301 141.617C132.794 140.836 133.508 140.219 134.352 139.844C135.196 139.469 136.132 139.353 137.042 139.51C137.952 139.666 138.795 140.09 139.465 140.726C140.134 141.362 140.6 142.182 140.804 143.083C141.007 143.984 140.939 144.925 140.608 145.787C140.277 146.649 139.697 147.393 138.943 147.926C138.189 148.459 137.293 148.756 136.37 148.78C135.757 148.796 135.146 148.691 134.574 148.471C134.001 148.251 133.477 147.92 133.032 147.498C132.588 147.075 132.23 146.569 131.981 146.008C131.732 145.448 131.596 144.843 131.58 144.23Z" fill="#BDB3D9" fill-opacity="0.4"/>
</g>
<path d="M452.35 212.8C447.3 212.924 442.401 214.544 438.272 217.454C434.143 220.364 430.97 224.433 429.155 229.146C427.339 233.86 426.963 239.006 428.073 243.934C429.183 248.862 431.731 253.349 435.392 256.829C439.054 260.308 443.665 262.624 448.643 263.481C453.621 264.339 458.741 263.701 463.356 261.648C467.971 259.595 471.874 256.218 474.569 251.947C477.265 247.675 478.633 242.699 478.5 237.65C478.322 230.889 475.468 224.475 470.565 219.816C465.663 215.157 459.111 212.633 452.35 212.8ZM453.5 254.9C450.221 254.986 446.991 254.098 444.218 252.348C441.444 250.597 439.252 248.064 437.918 245.068C436.584 242.072 436.169 238.747 436.725 235.515C437.281 232.283 438.783 229.288 441.041 226.91C443.299 224.532 446.212 222.876 449.411 222.153C452.61 221.431 455.951 221.673 459.013 222.849C462.074 224.026 464.718 226.083 466.609 228.763C468.501 231.442 469.556 234.621 469.64 237.9C469.697 240.076 469.325 242.242 468.545 244.275C467.764 246.307 466.591 248.166 465.092 249.744C463.593 251.323 461.798 252.591 459.809 253.476C457.82 254.36 455.676 254.844 453.5 254.9Z" fill="#BDB3D9" fill-opacity="0.4"/>
<path d="M457.28 213.73L447.47 213.99L447.83 207.03L456.56 206.8L457.28 213.73Z" fill="#BDB3D9" fill-opacity="0.4"/>
<path d="M438.69 217.53L431.94 224.65L427.27 219.48L433.28 213.14L438.69 217.53Z" fill="#BDB3D9" fill-opacity="0.4"/>
<path d="M428.23 233.37L428.49 243.18L421.53 242.82L421.3 234.09L428.23 233.37Z" fill="#BDB3D9" fill-opacity="0.4"/>
<path d="M432.03 251.96L439.15 258.71L433.98 263.38L427.64 257.37L432.03 251.96Z" fill="#BDB3D9" fill-opacity="0.4"/>
<path d="M447.86 262.42L457.68 262.16L457.32 269.12L448.59 269.35L447.86 262.42Z" fill="#BDB3D9" fill-opacity="0.4"/>
<path d="M466.46 258.62L473.21 251.5L477.88 256.67L471.87 263.01L466.46 258.62Z" fill="#BDB3D9" fill-opacity="0.4"/>
<path d="M476.92 242.78L476.66 232.97L483.62 233.33L483.85 242.06L476.92 242.78Z" fill="#BDB3D9" fill-opacity="0.4"/>
<path d="M473.12 224.19L466 217.44L471.17 212.77L477.51 218.78L473.12 224.19Z" fill="#BDB3D9" fill-opacity="0.4"/>
<path d="M196.81 56.5C191.763 56.6322 186.869 58.2578 182.745 61.1712C178.622 64.0847 175.456 68.1552 173.645 72.8682C171.835 77.5812 171.463 82.725 172.576 87.6495C173.689 92.5739 176.237 97.0578 179.898 100.534C183.559 104.011 188.169 106.324 193.144 107.181C198.12 108.038 203.237 107.4 207.851 105.349C212.464 103.298 216.365 99.9253 219.062 95.6571C221.758 91.3889 223.129 86.417 223 81.37C222.916 78.0166 222.171 74.7128 220.809 71.6474C219.447 68.582 217.493 65.8152 215.061 63.5053C212.629 61.1955 209.765 59.3878 206.633 58.1858C203.501 56.9838 200.163 56.4109 196.81 56.5ZM197.92 98.59C194.641 98.678 191.41 97.7914 188.635 96.0425C185.86 94.2936 183.666 91.761 182.331 88.7651C180.996 85.7691 180.58 82.4444 181.134 79.2117C181.689 75.9789 183.19 72.9834 185.448 70.604C187.705 68.2246 190.618 66.5683 193.817 65.8446C197.016 65.1209 200.358 65.3624 203.42 66.5385C206.482 67.7145 209.127 69.7724 211.019 72.4516C212.911 75.1309 213.966 78.3111 214.05 81.59C214.166 85.9853 212.532 90.2468 209.507 93.4381C206.483 96.6294 202.315 98.4896 197.92 98.61V98.59Z" fill="#BDB3D9" fill-opacity="0.4"/>
<path d="M201.74 57.45L191.92 57.71L192.28 50.74L201.01 50.52L201.74 57.45Z" fill="#BDB3D9" fill-opacity="0.4"/>
<path d="M183.15 61.25L176.39 68.37L171.72 63.19L177.73 56.86L183.15 61.25Z" fill="#BDB3D9" fill-opacity="0.4"/>
<path d="M172.69 77.08L172.94 86.89L165.98 86.54L165.75 77.81L172.69 77.08Z" fill="#BDB3D9" fill-opacity="0.4"/>
<path d="M176.49 95.67L183.61 102.43L178.43 107.1L172.1 101.09L176.49 95.67Z" fill="#BDB3D9" fill-opacity="0.4"/>
<path d="M192.32 106.13L202.13 105.87L201.77 112.84L193.04 113.07L192.32 106.13Z" fill="#BDB3D9" fill-opacity="0.4"/>
<path d="M210.91 102.33L217.67 95.21L222.34 100.39L216.33 106.72L210.91 102.33Z" fill="#BDB3D9" fill-opacity="0.4"/>
<path d="M221.37 86.5L221.11 76.69L228.07 77.05L228.3 85.77L221.37 86.5Z" fill="#BDB3D9" fill-opacity="0.4"/>
<path d="M217.57 67.91L210.45 61.15L215.63 56.48L221.96 62.49L217.57 67.91Z" fill="#BDB3D9" fill-opacity="0.4"/>
<path d="M80.6499 467.2L131.36 466.95L182.07 466.87L283.5 466.7L384.93 466.86L435.64 466.95L486.36 467.2L435.64 467.44L384.93 467.53L283.5 467.7L182.07 467.53L131.36 467.44L80.6499 467.2Z" fill="#4616CB"/>
<path d="M298.31 356.22L297.37 355.86C302.1 343.37 307.37 299.44 282.32 268.42C275.21 259.61 265.76 251.17 256.62 243.02C245.01 232.66 234.05 222.87 227.53 212.41C220.75 201.5 219.03 188.22 223.05 177.73C224.382 174.049 226.568 170.737 229.427 168.063C232.286 165.39 235.738 163.432 239.5 162.35L239.77 163.35C236.153 164.389 232.834 166.27 230.084 168.839C227.334 171.408 225.232 174.592 223.95 178.13C220.03 188.33 221.72 201.28 228.34 211.92C234.78 222.26 245.69 232 257.25 242.31C266.42 250.5 275.9 258.96 283.06 267.83C308.38 299.15 303.09 343.58 298.31 356.22Z" fill="#4616CB"/>
<path d="M300.99 345.5H299.99C300.69 325.79 298.84 289.62 278.67 268.91C276.04 266.22 273.03 263.27 269.85 260.15C253.43 244.08 230.96 222.08 227.47 200.88C223.33 175.76 239.26 165.93 239.42 165.88L239.93 166.74C239.78 166.83 224.43 176.35 228.45 200.74C231.89 221.61 254.23 243.48 270.55 259.46C273.74 262.58 276.75 265.53 279.38 268.23C299.82 289.13 301.69 325.6 300.99 345.5Z" fill="#4616CB"/>
<path d="M178.65 434C178.01 432.19 162.85 389.33 162.85 368.26C162.687 356.878 166.958 345.879 174.76 337.59C183.96 327.9 197.61 322.13 215.35 320.42L215.54 322.42C168.54 326.93 164.85 358.65 164.85 368.26C164.85 388.99 180.38 432.89 180.54 433.33L178.65 434Z" fill="#4616CB"/>
<path d="M172.32 436.38C172 434.48 164.74 389.69 167.48 368.83C170.67 344.51 185.4 331.29 215.27 325.96L215.62 327.96C186.36 333.15 172.56 345.5 169.5 369.09C166.8 389.66 174.25 435.59 174.33 436.09L172.32 436.38Z" fill="#4616CB"/>
<path d="M401.33 434.5L399.56 433.5C399.71 433.23 414.12 405.82 409.8 382.39C407.65 370.75 397.8 351.46 355.7 352.77L355.63 350.77C399.23 349.37 409.5 369.77 411.76 382.03C416.22 406.18 401.94 433.33 401.33 434.5Z" fill="#4616CB"/>
<path d="M406.07 438.82L404.07 438.54C404.13 438.15 409.59 398.91 405.26 383.54C400.26 365.88 385.57 357.96 356.06 357.05L356.13 355.05C386.66 355.99 401.93 364.35 407.19 383C411.65 398.78 406.3 437.2 406.07 438.82Z" fill="#4616CB"/>
<path d="M305.17 151.69L294.33 128.06L234.64 152.9C232.713 153.67 230.962 154.823 229.494 156.289C228.025 157.756 226.87 159.505 226.098 161.431C225.325 163.357 224.952 165.42 225.001 167.494C225.049 169.569 225.518 171.612 226.38 173.5C227.245 175.387 228.486 177.079 230.026 178.471C231.565 179.864 233.372 180.929 235.337 181.602C237.301 182.274 239.382 182.54 241.452 182.384C243.522 182.227 245.539 181.651 247.38 180.69L305.17 151.69Z" fill="#FAD141"/>
<path d="M385.15 147.03L386.69 136.2L399.98 136.03L402.77 145.54L385.15 147.03Z" fill="#FAD141"/>
<path d="M374.79 132.95L386.67 136.22L382.18 146.64L348.43 140.91L374.79 132.95Z" fill="#FAD141"/>
<path d="M399.98 136.03L405.02 144.95L416.78 136.87L413.69 132.3L399.98 136.03Z" fill="#FAD141"/>
<path d="M386.69 136.2L382.41 146.11L385.23 146.45L386.69 136.2Z" fill="#4616CB"/>
<path d="M399.98 136.03L402.6 144.94L404.65 144.32L399.98 136.03Z" fill="#4616CB"/>
<path opacity="0.1" d="M380.27 144.19C379.813 144.423 379.297 144.511 378.789 144.442C378.281 144.374 377.806 144.152 377.428 143.807C377.049 143.462 376.785 143.01 376.67 142.51C376.555 142.011 376.595 141.489 376.784 141.013C376.974 140.537 377.304 140.13 377.73 139.846C378.157 139.562 378.66 139.416 379.172 139.425C379.684 139.435 380.181 139.6 380.597 139.899C381.013 140.198 381.328 140.617 381.5 141.1C381.709 141.676 381.7 142.309 381.473 142.879C381.246 143.449 380.818 143.915 380.27 144.19ZM378.76 140.09C378.441 140.266 378.18 140.53 378.007 140.85C377.834 141.17 377.757 141.533 377.784 141.895C377.812 142.258 377.943 142.605 378.161 142.896C378.38 143.186 378.678 143.408 379.019 143.534C379.36 143.661 379.73 143.687 380.086 143.609C380.441 143.531 380.767 143.353 381.024 143.095C381.281 142.838 381.458 142.512 381.536 142.156C381.613 141.801 381.587 141.431 381.46 141.09C381.366 140.833 381.217 140.599 381.024 140.405C380.831 140.211 380.598 140.061 380.341 139.966C380.084 139.871 379.81 139.833 379.537 139.854C379.264 139.875 378.999 139.956 378.76 140.09Z" fill="black"/>
<path opacity="0.1" d="M399.16 145.17C398.74 145.46 398.242 145.616 397.733 145.616C397.223 145.616 396.725 145.461 396.305 145.171C395.885 144.881 395.564 144.47 395.384 143.993C395.203 143.516 395.173 142.996 395.296 142.501C395.419 142.006 395.69 141.56 396.072 141.223C396.455 140.886 396.931 140.673 397.437 140.613C397.944 140.553 398.457 140.649 398.907 140.888C399.358 141.127 399.725 141.497 399.96 141.95C400.241 142.492 400.315 143.118 400.168 143.711C400.02 144.304 399.662 144.822 399.16 145.17ZM397.16 141.29C396.865 141.504 396.638 141.797 396.505 142.136C396.373 142.475 396.34 142.845 396.412 143.202C396.484 143.559 396.656 143.887 396.909 144.149C397.162 144.411 397.485 144.594 397.839 144.678C398.193 144.761 398.564 144.741 398.907 144.62C399.25 144.499 399.551 144.282 399.775 143.995C399.998 143.707 400.134 143.362 400.167 142.999C400.2 142.637 400.128 142.273 399.96 141.95C399.834 141.708 399.657 141.496 399.441 141.328C399.226 141.161 398.977 141.042 398.711 140.979C398.445 140.916 398.169 140.912 397.901 140.965C397.634 141.019 397.381 141.13 397.16 141.29Z" fill="black"/>
<path d="M376.57 77.25L381.66 87.2L397.22 82.87L396.1 73.25L376.57 77.25Z" fill="#FAD141"/>
<path d="M359.72 106.01L381.66 87.2L374.1 78.73L347.9 95.89L359.72 106.01Z" fill="#FAD141"/>
<path d="M397.22 82.87L398.35 72.92L415.21 77.07L413.41 82.58L397.22 82.87Z" fill="#FAD141"/>
<path d="M381.66 87.2L374.68 79.38L376.95 77.98L381.66 87.2Z" fill="#4616CB"/>
<path d="M397.22 82.87L396.17 73.86L398.25 73.63L397.22 82.87Z" fill="#4616CB"/>
<path opacity="0.1" d="M374.8 85.5C374.531 85.9159 374.143 86.2402 373.685 86.43C373.228 86.6197 372.724 86.6659 372.24 86.5624C371.756 86.4588 371.314 86.2104 370.975 85.8502C370.635 85.49 370.413 85.035 370.338 84.5457C370.263 84.0563 370.339 83.5557 370.555 83.1104C370.772 82.665 371.118 82.296 371.549 82.0523C371.98 81.8087 372.475 81.7019 372.968 81.7461C373.461 81.7903 373.929 81.9835 374.31 82.3C374.765 82.6838 375.065 83.2196 375.155 83.808C375.245 84.3965 375.119 84.9976 374.8 85.5ZM374.8 85.5C374.981 85.2037 375.075 84.862 375.069 84.5147C375.063 84.1673 374.959 83.8288 374.768 83.5386C374.577 83.2484 374.308 83.0185 373.991 82.8759C373.674 82.7332 373.323 82.6836 372.979 82.7329C372.636 82.7822 372.313 82.9283 372.049 83.1542C371.785 83.3802 371.591 83.6765 371.489 84.0087C371.388 84.3408 371.383 84.695 371.475 85.03C371.567 85.3649 371.753 85.6666 372.01 85.9C372.211 86.0775 372.448 86.2092 372.705 86.286C372.961 86.3628 373.232 86.3829 373.497 86.3449C373.763 86.3068 374.017 86.2115 374.241 86.0657C374.466 85.9198 374.657 85.7268 374.8 85.5Z" fill="black"/>
<path opacity="0.1" d="M394.44 78.59C394.171 79.0059 393.783 79.3303 393.325 79.52C392.868 79.7098 392.364 79.7559 391.88 79.6524C391.396 79.5488 390.955 79.3005 390.615 78.9403C390.275 78.58 390.053 78.125 389.978 77.6357C389.903 77.1463 389.979 76.6457 390.195 76.2004C390.412 75.755 390.758 75.386 391.189 75.1424C391.62 74.8987 392.115 74.7919 392.608 74.8361C393.101 74.8803 393.569 75.0735 393.95 75.39C394.409 75.7713 394.712 76.3074 394.802 76.897C394.892 77.4866 394.764 78.0889 394.44 78.59ZM394.44 78.59C394.623 78.2939 394.717 77.9517 394.713 77.6038C394.708 77.2558 394.604 76.9163 394.413 76.6253C394.222 76.3342 393.953 76.1036 393.635 75.9605C393.318 75.8174 392.967 75.7677 392.622 75.8172C392.278 75.8668 391.955 76.0136 391.691 76.2403C391.427 76.4671 391.233 76.7644 391.132 77.0975C391.031 77.4305 391.027 77.7854 391.12 78.1207C391.214 78.4559 391.401 78.7574 391.66 78.99C391.861 79.1657 392.097 79.2959 392.353 79.3717C392.609 79.4475 392.878 79.4671 393.142 79.4291C393.406 79.3911 393.659 79.2964 393.883 79.1516C394.107 79.0068 394.297 78.8152 394.44 78.59Z" fill="black"/>
<path opacity="0.1" d="M413.98 80.85L413.42 82.58L397.22 82.87L381.66 87.2L359.72 106.01L348.58 96.5L350.41 95.1L371.5 86.36L372.16 86.08L375.05 84.89L378.38 83.5L379.53 83.02L384.7 80.88L396.95 80.57H397.47L413.98 80.85Z" fill="black"/>
<path d="M398.43 96.44L400.54 107.42L418.05 106.71L419.65 97.16L398.43 96.44Z" fill="#FAD141"/>
<path d="M374.24 119.37L400.54 107.42L395.64 97.18L365.7 106.37L374.24 119.37Z" fill="#FAD141"/>
<path d="M418.05 106.71L421.9 97.47L438.08 103.12L434.83 107.91L418.05 106.71Z" fill="#FAD141"/>
<path d="M400.54 107.42L396.02 97.97L398.59 97.25L400.54 107.42Z" fill="#4616CB"/>
<path d="M418.05 106.71L419.55 97.76L421.62 98.12L418.05 106.71Z" fill="#4616CB"/>
<path opacity="0.1" d="M394.7 103.24C394.43 103.655 394.041 103.977 393.584 104.166C393.127 104.354 392.623 104.399 392.14 104.295C391.656 104.191 391.216 103.942 390.877 103.582C390.538 103.222 390.317 102.767 390.242 102.278C390.168 101.789 390.243 101.289 390.459 100.844C390.675 100.399 391.021 100.031 391.452 99.7869C391.882 99.5432 392.376 99.4359 392.869 99.4793C393.361 99.5227 393.829 99.7147 394.21 100.03C394.664 100.417 394.963 100.954 395.053 101.544C395.143 102.133 395.018 102.735 394.7 103.24ZM394.7 103.24C394.885 102.942 394.981 102.598 394.977 102.248C394.973 101.898 394.869 101.556 394.678 101.263C394.486 100.969 394.215 100.737 393.896 100.593C393.576 100.448 393.223 100.398 392.876 100.448C392.529 100.497 392.204 100.645 391.938 100.873C391.672 101.101 391.477 101.401 391.376 101.736C391.274 102.071 391.271 102.429 391.365 102.766C391.46 103.103 391.649 103.406 391.91 103.64C392.112 103.814 392.35 103.943 392.606 104.018C392.862 104.093 393.132 104.112 393.396 104.074C393.66 104.036 393.913 103.942 394.138 103.798C394.363 103.655 394.555 103.464 394.7 103.24Z" fill="black"/>
<path opacity="0.1" d="M417.01 101.7C416.744 102.117 416.357 102.443 415.901 102.636C415.445 102.828 414.941 102.877 414.456 102.776C413.972 102.675 413.529 102.43 413.188 102.071C412.846 101.713 412.621 101.26 412.544 100.771C412.466 100.282 412.538 99.7816 412.752 99.335C412.965 98.8885 413.309 98.5174 413.738 98.271C414.168 98.0246 414.662 97.9146 415.155 97.9555C415.648 97.9964 416.117 98.1863 416.5 98.5C416.958 98.8811 417.262 99.4156 417.356 100.004C417.45 100.593 417.327 101.195 417.01 101.7ZM417.01 101.7C417.195 101.402 417.291 101.058 417.287 100.708C417.283 100.358 417.179 100.016 416.987 99.7227C416.796 99.4294 416.525 99.1969 416.205 99.0525C415.886 98.9081 415.533 98.8578 415.186 98.9076C414.839 98.9573 414.514 99.1049 414.248 99.3332C413.982 99.5614 413.787 99.8608 413.686 100.196C413.584 100.531 413.581 100.889 413.675 101.226C413.77 101.563 413.959 101.866 414.22 102.1C414.422 102.276 414.659 102.406 414.915 102.482C415.172 102.558 415.442 102.578 415.707 102.54C415.971 102.502 416.225 102.407 416.45 102.262C416.675 102.117 416.866 101.925 417.01 101.7Z" fill="black"/>
<path opacity="0.1" d="M392.97 110.86L374.24 119.37L371.65 115.43L392.97 110.86Z" fill="black"/>
<path d="M404 113.46L403.76 124.63L421.03 127.61L424.6 118.6L404 113.46Z" fill="#FAD141"/>
<path d="M377.8 131L403.76 124.63L401.12 113.59L372.17 116.5L377.8 131Z" fill="#FAD141"/>
<path d="M421.03 127.61L426.73 119.38L440.25 127.61L437.18 132.3L421.03 127.61Z" fill="#FAD141"/>
<path d="M403.76 124.63L401.32 114.44L403.98 114.28L403.76 124.63Z" fill="#4616CB"/>
<path d="M421.03 127.61L424.37 119.17L426.31 119.96L421.03 127.61Z" fill="#4616CB"/>
<path opacity="0.1" d="M399 118.85C398.731 119.266 398.342 119.59 397.885 119.78C397.428 119.97 396.924 120.016 396.439 119.912C395.955 119.809 395.514 119.56 395.174 119.2C394.835 118.84 394.613 118.385 394.538 117.896C394.463 117.406 394.539 116.906 394.755 116.46C394.971 116.015 395.318 115.646 395.749 115.402C396.18 115.159 396.675 115.052 397.168 115.096C397.661 115.14 398.129 115.334 398.51 115.65C398.965 116.034 399.265 116.57 399.355 117.158C399.445 117.746 399.319 118.348 399 118.85ZM399 118.85C399.184 118.552 399.28 118.208 399.277 117.858C399.273 117.508 399.169 117.166 398.977 116.873C398.786 116.579 398.514 116.347 398.195 116.203C397.876 116.058 397.522 116.008 397.176 116.058C396.829 116.107 396.503 116.255 396.238 116.483C395.972 116.711 395.777 117.011 395.676 117.346C395.574 117.681 395.57 118.039 395.665 118.376C395.76 118.713 395.949 119.016 396.21 119.25C396.41 119.428 396.648 119.559 396.904 119.636C397.161 119.713 397.432 119.733 397.697 119.695C397.962 119.657 398.216 119.562 398.441 119.416C398.666 119.27 398.857 119.077 399 118.85Z" fill="black"/>
<path opacity="0.1" d="M421.5 121.84C421.231 122.256 420.842 122.58 420.385 122.77C419.928 122.96 419.424 123.006 418.939 122.902C418.455 122.799 418.014 122.55 417.674 122.19C417.335 121.83 417.113 121.375 417.038 120.886C416.963 120.396 417.039 119.896 417.255 119.45C417.471 119.005 417.818 118.636 418.249 118.392C418.68 118.149 419.175 118.042 419.668 118.086C420.161 118.13 420.629 118.324 421.01 118.64C421.466 119.023 421.768 119.559 421.858 120.148C421.949 120.737 421.821 121.338 421.5 121.84ZM421.5 121.84C421.684 121.542 421.78 121.198 421.777 120.848C421.773 120.498 421.669 120.156 421.477 119.863C421.286 119.569 421.014 119.337 420.695 119.193C420.376 119.048 420.022 118.998 419.676 119.048C419.329 119.097 419.003 119.245 418.738 119.473C418.472 119.701 418.277 120.001 418.176 120.336C418.074 120.671 418.07 121.029 418.165 121.366C418.26 121.703 418.449 122.006 418.71 122.24C418.91 122.417 419.148 122.549 419.404 122.626C419.661 122.703 419.932 122.723 420.197 122.685C420.462 122.647 420.716 122.552 420.941 122.406C421.166 122.26 421.357 122.067 421.5 121.84Z" fill="black"/>
<path d="M394.08 83.39L396.54 94.29L412.71 92.61L414 83.01L394.08 83.39Z" fill="#FAD141"/>
<path d="M370.64 107.09L396.54 94.29L391.32 84.22L361.69 94.37L370.64 107.09Z" fill="#FAD141"/>
<path d="M412.71 92.61L416.26 83.25L432.25 89.52L429.15 94.42L412.71 92.61Z" fill="#FAD141"/>
<path d="M396.54 94.29L391.72 84.99L394.26 84.2L396.54 94.29Z" fill="#4616CB"/>
<path d="M412.71 92.61L413.92 83.62L415.99 83.91L412.71 92.61Z" fill="#4616CB"/>
<path opacity="0.1" d="M391.04 89.9C390.768 90.3107 390.378 90.6289 389.921 90.8127C389.464 90.9965 388.962 91.037 388.481 90.929C388.001 90.821 387.564 90.5695 387.23 90.2078C386.895 89.8462 386.679 89.3915 386.609 88.9039C386.539 88.4164 386.618 87.9191 386.837 87.4779C387.056 87.0367 387.404 86.6725 387.835 86.4335C388.265 86.1944 388.759 86.0919 389.249 86.1396C389.739 86.1872 390.203 86.3826 390.58 86.7C391.032 87.0866 391.328 87.6245 391.413 88.2134C391.497 88.8022 391.365 89.4017 391.04 89.9ZM391.04 89.9C391.224 89.6051 391.32 89.2639 391.317 88.9164C391.314 88.5689 391.212 88.2293 391.024 87.9375C390.835 87.6457 390.567 87.4137 390.251 87.2686C389.935 87.1236 389.585 87.0715 389.24 87.1184C388.896 87.1653 388.572 87.3093 388.306 87.5335C388.041 87.7578 387.845 88.053 387.741 88.3846C387.637 88.7163 387.63 89.0707 387.72 89.4063C387.81 89.742 387.994 90.045 388.25 90.28C388.45 90.4568 388.686 90.5884 388.942 90.6658C389.198 90.7433 389.467 90.7647 389.732 90.7286C389.997 90.6925 390.251 90.5999 390.476 90.4569C390.702 90.3139 390.894 90.124 391.04 89.9Z" fill="black"/>
<path opacity="0.1" d="M411.75 87.69C411.478 88.1033 411.087 88.4242 410.629 88.6101C410.17 88.7961 409.666 88.8383 409.183 88.7312C408.7 88.6241 408.261 88.3727 407.924 88.0104C407.588 87.6481 407.369 87.192 407.297 86.7025C407.226 86.2131 407.304 85.7134 407.523 85.2697C407.742 84.8261 408.091 84.4594 408.522 84.2184C408.954 83.9773 409.449 83.8732 409.942 83.92C410.434 83.9667 410.901 84.162 411.28 84.48C411.733 84.8682 412.03 85.407 412.116 85.997C412.202 86.587 412.072 87.1883 411.75 87.69ZM411.75 87.69C411.9 87.4882 412.008 87.2578 412.065 87.0129C412.123 86.768 412.13 86.5139 412.086 86.2662C412.041 86.0186 411.947 85.7826 411.807 85.573C411.668 85.3634 411.488 85.1846 411.277 85.0476C411.065 84.9105 410.829 84.8183 410.581 84.7764C410.332 84.7345 410.078 84.744 409.834 84.8042C409.59 84.8644 409.36 84.9741 409.16 85.1265C408.96 85.2788 408.793 85.4706 408.67 85.69C408.427 86.0539 408.322 86.4922 408.374 86.9265C408.425 87.3608 408.629 87.7627 408.95 88.06C409.151 88.2375 409.387 88.3698 409.643 88.4481C409.899 88.5263 410.169 88.5487 410.434 88.5136C410.7 88.4785 410.955 88.3868 411.182 88.2447C411.409 88.1027 411.602 87.9135 411.75 87.69Z" fill="black"/>
<path opacity="0.1" d="M392.07 96.5L370.64 107.09L367.86 103.14L392.07 96.5Z" fill="black"/>
<path d="M327.95 106.78L362.22 84.24L383.37 130.14L343.67 140.43L327.95 106.78Z" fill="#FAD141"/>
<path opacity="0.1" d="M327.95 106.78L362.22 84.24L383.37 130.14L343.67 140.43L327.95 106.78Z" fill="black"/>
<path d="M325.62 107.47L353.1 88.15L374.79 132.95L342.18 142.79L325.62 107.47Z" fill="#FAD141"/>
<path opacity="0.1" d="M353.05 97.93C352.78 98.3412 352.392 98.661 351.937 98.8471C351.482 99.0332 350.981 99.0768 350.5 98.9722C350.02 98.8675 349.583 98.6196 349.246 98.2612C348.909 97.9027 348.689 97.4506 348.615 96.9645C348.541 96.4784 348.616 95.9812 348.83 95.5386C349.045 95.0961 349.388 94.729 349.816 94.4858C350.243 94.2426 350.734 94.1348 351.224 94.1766C351.714 94.2184 352.18 94.4079 352.56 94.72C353.021 95.1017 353.326 95.6397 353.416 96.2316C353.507 96.8235 353.376 97.428 353.05 97.93ZM353.05 97.93C353.236 97.6326 353.333 97.2881 353.33 96.9371C353.327 96.5862 353.224 96.2435 353.032 95.9494C352.841 95.6553 352.569 95.422 352.25 95.2772C351.93 95.1323 351.576 95.0819 351.228 95.1319C350.881 95.1819 350.555 95.3302 350.289 95.5593C350.023 95.7883 349.829 96.0887 349.728 96.4248C349.627 96.761 349.625 97.119 349.721 97.4565C349.817 97.7941 350.007 98.0971 350.27 98.33C350.471 98.5041 350.708 98.6329 350.963 98.7078C351.219 98.7826 351.487 98.8017 351.751 98.7638C352.014 98.7259 352.267 98.6318 352.491 98.488C352.715 98.3441 352.905 98.1538 353.05 97.93Z" fill="black"/>
<path opacity="0.1" d="M358.67 108.9C358.401 109.313 358.014 109.634 357.558 109.821C357.103 110.009 356.602 110.053 356.121 109.95C355.639 109.846 355.201 109.598 354.864 109.24C354.526 108.881 354.306 108.429 354.231 107.942C354.157 107.455 354.232 106.958 354.446 106.515C354.661 106.072 355.005 105.704 355.433 105.461C355.861 105.218 356.353 105.111 356.844 105.153C357.334 105.196 357.8 105.387 358.18 105.7C358.635 106.084 358.935 106.62 359.025 107.208C359.115 107.796 358.989 108.398 358.67 108.9ZM358.67 108.9C358.853 108.604 358.947 108.262 358.942 107.914C358.938 107.566 358.834 107.226 358.643 106.935C358.452 106.644 358.182 106.414 357.865 106.27C357.548 106.127 357.196 106.078 356.852 106.127C356.507 106.177 356.184 106.324 355.92 106.55C355.656 106.777 355.462 107.074 355.361 107.407C355.26 107.74 355.256 108.095 355.35 108.431C355.444 108.766 355.631 109.067 355.89 109.3C356.09 109.476 356.327 109.606 356.583 109.682C356.838 109.757 357.108 109.777 357.372 109.739C357.636 109.701 357.888 109.606 358.112 109.462C358.337 109.317 358.527 109.125 358.67 108.9Z" fill="black"/>
<path opacity="0.1" d="M364.3 119.87C364.031 120.286 363.643 120.61 363.185 120.8C362.728 120.99 362.224 121.036 361.74 120.932C361.256 120.829 360.814 120.58 360.475 120.22C360.135 119.86 359.913 119.405 359.838 118.916C359.763 118.426 359.839 117.926 360.055 117.48C360.272 117.035 360.618 116.666 361.049 116.422C361.48 116.179 361.975 116.072 362.468 116.116C362.961 116.16 363.429 116.353 363.81 116.67C364.265 117.054 364.565 117.59 364.655 118.178C364.745 118.766 364.619 119.368 364.3 119.87ZM364.3 119.87C364.485 119.572 364.581 119.228 364.577 118.878C364.573 118.528 364.469 118.186 364.277 117.893C364.086 117.599 363.815 117.367 363.495 117.223C363.176 117.078 362.823 117.028 362.476 117.078C362.129 117.127 361.804 117.275 361.538 117.503C361.272 117.731 361.077 118.031 360.976 118.366C360.874 118.701 360.871 119.059 360.965 119.396C361.06 119.733 361.249 120.036 361.51 120.27C361.711 120.446 361.949 120.576 362.205 120.652C362.462 120.728 362.732 120.747 362.997 120.71C363.261 120.672 363.515 120.577 363.74 120.432C363.965 120.287 364.156 120.095 364.3 119.87Z" fill="black"/>
<path opacity="0.1" d="M369.92 130.85C369.65 131.265 369.261 131.587 368.804 131.776C368.346 131.964 367.843 132.009 367.359 131.905C366.876 131.801 366.436 131.552 366.097 131.192C365.758 130.832 365.537 130.377 365.462 129.888C365.387 129.399 365.463 128.899 365.679 128.454C365.895 128.009 366.241 127.641 366.671 127.397C367.102 127.153 367.596 127.046 368.088 127.089C368.581 127.133 369.049 127.325 369.43 127.64C369.889 128.023 370.193 128.561 370.283 129.152C370.373 129.743 370.244 130.347 369.92 130.85ZM369.92 130.85C370.105 130.552 370.201 130.208 370.197 129.858C370.193 129.508 370.089 129.166 369.897 128.873C369.706 128.579 369.434 128.347 369.115 128.203C368.796 128.058 368.442 128.008 368.096 128.058C367.749 128.107 367.424 128.255 367.158 128.483C366.892 128.711 366.697 129.011 366.596 129.346C366.494 129.681 366.491 130.039 366.585 130.376C366.68 130.713 366.869 131.016 367.13 131.25C367.332 131.424 367.569 131.553 367.826 131.628C368.082 131.703 368.351 131.722 368.616 131.684C368.88 131.646 369.133 131.552 369.358 131.408C369.583 131.265 369.774 131.074 369.92 130.85Z" fill="black"/>
<path d="M315.37 152.133L300.649 120.038L292.387 123.828L307.108 155.923L315.37 152.133Z" fill="#A7A8AA"/>
<path d="M328.683 140.642L318.048 117.455L302.705 124.493L313.34 147.68L328.683 140.642Z" fill="#4616CB"/>
<path d="M350.198 144.723L328.848 98.1761L312.596 105.631L333.946 152.178L350.198 144.723Z" fill="#A7A8AA"/>
<path d="M326.68 114.93C327.473 114.567 328.142 113.977 328.6 113.235C329.058 112.492 329.286 111.63 329.254 110.758C329.222 109.886 328.933 109.043 328.422 108.336C327.91 107.629 327.201 107.089 326.383 106.785C325.565 106.481 324.675 106.427 323.826 106.629C322.978 106.831 322.208 107.28 321.614 107.919C321.021 108.559 320.63 109.361 320.492 110.222C320.355 111.084 320.475 111.967 320.84 112.76C321.08 113.286 321.422 113.76 321.846 114.154C322.27 114.548 322.767 114.855 323.31 115.057C323.852 115.258 324.429 115.351 325.007 115.329C325.586 115.307 326.154 115.172 326.68 114.93Z" fill="#4616CB"/>
<path d="M339.77 143.5C340.562 143.136 341.229 142.545 341.685 141.802C342.142 141.059 342.368 140.198 342.335 139.326C342.303 138.455 342.012 137.613 341.501 136.906C340.989 136.2 340.28 135.661 339.462 135.358C338.645 135.055 337.756 135.001 336.907 135.203C336.059 135.405 335.289 135.853 334.696 136.493C334.103 137.132 333.713 137.933 333.574 138.794C333.436 139.655 333.556 140.537 333.92 141.33C334.161 141.857 334.504 142.331 334.929 142.725C335.353 143.119 335.852 143.426 336.395 143.627C336.938 143.829 337.516 143.921 338.095 143.9C338.674 143.878 339.243 143.742 339.77 143.5Z" fill="#4616CB"/>
<path d="M256.65 159.84L299.76 264.67C300.664 266.87 301.127 269.227 301.12 271.606C301.114 273.985 300.639 276.339 299.722 278.535C298.806 280.73 297.466 282.723 295.778 284.401C294.091 286.078 292.09 287.406 289.89 288.31C285.454 290.141 280.472 290.136 276.04 288.296C271.607 286.457 268.086 282.934 266.25 278.5L223.14 173.62C222.235 171.42 221.772 169.063 221.779 166.684C221.785 164.305 222.26 161.95 223.177 159.755C224.093 157.56 225.434 155.567 227.121 153.889C228.808 152.212 230.809 150.884 233.01 149.98C235.209 149.075 237.566 148.612 239.944 148.618C242.323 148.623 244.677 149.098 246.872 150.013C249.067 150.929 251.061 152.268 252.738 153.954C254.416 155.64 255.745 157.64 256.65 159.84Z" fill="#4616CB"/>
<path d="M276.38 268.5C276.847 267.249 277.675 266.164 278.758 265.383C279.841 264.602 281.131 264.159 282.466 264.11C283.8 264.061 285.12 264.409 286.257 265.109C287.394 265.809 288.298 266.83 288.856 268.044C289.413 269.258 289.599 270.609 289.389 271.928C289.179 273.247 288.583 274.474 287.676 275.455C286.769 276.435 285.592 277.125 284.294 277.438C282.995 277.75 281.633 277.671 280.38 277.21C279.544 276.903 278.777 276.433 278.123 275.828C277.469 275.224 276.941 274.496 276.569 273.686C276.198 272.877 275.99 272.002 275.957 271.112C275.925 270.222 276.068 269.334 276.38 268.5Z" fill="#4616CB"/>
<path d="M233.34 163.82C233.806 162.566 234.634 161.477 235.719 160.693C236.803 159.909 238.096 159.464 239.433 159.414C240.771 159.364 242.093 159.712 243.233 160.413C244.373 161.114 245.279 162.138 245.838 163.354C246.396 164.57 246.582 165.925 246.371 167.246C246.16 168.568 245.562 169.797 244.653 170.779C243.743 171.761 242.563 172.452 241.262 172.763C239.96 173.075 238.595 172.994 237.34 172.53C236.505 172.222 235.739 171.751 235.085 171.146C234.432 170.542 233.905 169.814 233.533 169.005C233.162 168.196 232.953 167.321 232.92 166.432C232.887 165.542 233.03 164.654 233.34 163.82Z" fill="#4616CB"/>
<path d="M408.07 436.21H169.2C160.96 436.21 154.28 442.89 154.28 451.13V452.31C154.28 460.55 160.96 467.23 169.2 467.23H408.07C416.31 467.23 422.99 460.55 422.99 452.31V451.13C422.99 442.89 416.31 436.21 408.07 436.21Z" fill="#A7A8AA"/>
<path d="M227.96 341.95H362.96C367.374 341.953 371.607 343.708 374.727 346.83C377.847 349.952 379.6 354.186 379.6 358.6V433.67H227.96V341.95Z" fill="#4616CB"/>
<path d="M403.97 383.92V436.21H173.3V356.29L192.41 338.03H324.97V365.66H384.86L403.97 383.92Z" fill="#A7A8AA"/>
<path d="M403.97 383.92V436.21H173.3V356.29L180.5 349.41L192.41 338.03H324.96V365.66H384.86L403.97 383.92Z" fill="#A7A8AA"/>
<path d="M403.97 436.21V430.85L173.3 424.16V436.21H403.97Z" fill="#4616CB"/>
<path d="M215.44 411.3H183.4V414.6H215.44V411.3Z" fill="#4616CB"/>
<path d="M215.44 418.51H183.4V421.81H215.44V418.51Z" fill="#4616CB"/>
<path d="M215.44 425.73H183.4V429.03H215.44V425.73Z" fill="#4616CB"/>
<path d="M393.552 403.118C394.724 388.546 383.862 375.783 369.29 374.611C354.718 373.438 341.954 384.301 340.782 398.872C339.61 413.444 350.472 426.208 365.044 427.38C379.616 428.552 392.379 417.69 393.552 403.118Z" fill="#4616CB"/>
<path d="M367.2 424.8H366.82C360.407 424.75 354.276 422.161 349.769 417.6C345.261 413.039 342.745 406.878 342.77 400.466C342.795 394.053 345.36 387.912 349.903 383.387C354.446 378.862 360.597 376.321 367.01 376.321C373.422 376.321 379.573 378.862 384.116 383.387C388.659 387.912 391.224 394.053 391.249 400.466C391.274 406.878 388.758 413.039 384.25 417.6C379.743 422.161 373.612 424.75 367.2 424.8ZM366.85 422.8H367.2C372.916 422.754 378.38 420.445 382.398 416.378C386.415 412.312 388.658 406.819 388.634 401.103C388.611 395.387 386.324 389.913 382.274 385.879C378.224 381.846 372.741 379.581 367.025 379.581C361.308 379.581 355.825 381.846 351.775 385.879C347.725 389.913 345.438 395.387 345.415 401.103C345.392 406.819 347.634 412.312 351.651 416.378C355.669 420.445 361.134 422.754 366.85 422.8Z" fill="#A7A8AA"/>
<path d="M373.11 419.17C373.126 418.626 373.29 418.096 373.584 417.638C373.879 417.18 374.292 416.811 374.78 416.57C375.339 416.3 375.883 416 376.41 415.67C376.87 415.379 377.401 415.219 377.945 415.206C378.49 415.194 379.027 415.33 379.5 415.6L382.76 417.6L389.12 406.96L385.85 405.01C385.386 404.72 385.011 404.308 384.764 403.82C384.517 403.332 384.409 402.785 384.45 402.24C384.45 401.95 384.45 401.64 384.45 401.34C384.45 401.04 384.45 400.72 384.45 400.42C384.429 399.876 384.556 399.336 384.819 398.858C385.081 398.381 385.469 397.984 385.94 397.71L389.26 395.86L383.26 385.03L379.93 386.88C379.448 387.135 378.906 387.254 378.361 387.224C377.817 387.194 377.291 387.016 376.84 386.71C376.331 386.367 375.804 386.054 375.26 385.77C374.779 385.514 374.378 385.132 374.097 384.665C373.817 384.199 373.67 383.664 373.67 383.12L373.73 379.33L361.34 379.13L361.28 382.92C361.259 383.462 361.092 383.988 360.796 384.442C360.5 384.896 360.087 385.262 359.6 385.5C359.05 385.77 358.51 386.07 357.99 386.39C357.53 386.681 356.999 386.841 356.455 386.854C355.91 386.866 355.373 386.73 354.9 386.46L351.63 384.5L345.27 395.13L348.55 397.13C349.009 397.418 349.381 397.824 349.628 398.307C349.874 398.789 349.986 399.329 349.95 399.87C349.93 400.176 349.93 400.484 349.95 400.79C349.935 401.09 349.935 401.39 349.95 401.69C349.974 402.239 349.846 402.784 349.582 403.265C349.317 403.746 348.926 404.146 348.45 404.42L345.13 406.27L351.13 417.1L354.45 415.25C354.929 414.987 355.472 414.862 356.018 414.891C356.563 414.919 357.091 415.099 357.54 415.41C358.06 415.75 358.59 416.06 359.13 416.35C359.614 416.605 360.019 416.988 360.301 417.457C360.583 417.926 360.731 418.463 360.73 419.01L360.67 422.8L373.06 422.99L373.11 419.17ZM359.22 400.9C359.24 399.315 359.73 397.773 360.629 396.467C361.527 395.161 362.793 394.152 364.265 393.567C365.738 392.982 367.351 392.847 368.901 393.18C370.45 393.513 371.865 394.299 372.968 395.438C374.07 396.576 374.809 398.017 375.091 399.576C375.374 401.135 375.186 402.744 374.554 404.196C373.921 405.649 372.871 406.881 371.536 407.737C370.202 408.592 368.644 409.032 367.06 409C364.949 408.958 362.94 408.083 361.471 406.565C360.002 405.048 359.193 403.012 359.22 400.9Z" fill="#A7A8AA"/>
<path d="M367.2 416.02H366.96C362.92 415.988 359.058 414.357 356.219 411.484C353.379 408.611 351.794 404.73 351.81 400.69C351.826 396.651 353.441 392.782 356.303 389.932C359.165 387.081 363.04 385.48 367.08 385.48C371.119 385.48 374.994 387.081 377.856 389.932C380.718 392.782 382.334 396.651 382.349 400.69C382.365 404.73 380.78 408.611 377.941 411.484C375.101 414.357 371.239 415.988 367.2 416.02ZM367.01 413.02C369.383 413.057 371.714 412.39 373.708 411.102C375.702 409.814 377.27 407.964 378.212 405.786C379.154 403.607 379.429 401.198 379.002 398.863C378.576 396.528 377.466 394.372 375.813 392.668C374.161 390.964 372.04 389.788 369.72 389.289C367.399 388.791 364.982 388.991 362.776 389.866C360.569 390.741 358.672 392.25 357.323 394.204C355.974 396.157 355.235 398.467 355.2 400.84C355.151 404.021 356.368 407.091 358.583 409.375C360.798 411.659 363.829 412.97 367.01 413.02Z" fill="#4616CB"/>
<path d="M258.5 389.31C252.497 398.308 243.397 404.786 232.93 407.513C222.463 410.24 211.359 409.025 201.73 404.099C192.1 399.173 184.617 390.88 180.702 380.796C176.788 370.713 176.716 359.543 180.5 349.41L192.41 338.03H256.79C262.39 345.33 265.566 354.2 265.872 363.396C266.179 372.591 263.601 381.653 258.5 389.31Z" fill="#4616CB"/>
<path d="M320.64 362.15H317.14V365.65H320.64V362.15Z" fill="#4616CB"/>
<path d="M320.64 355.42H317.14V358.92H320.64V355.42Z" fill="#4616CB"/>
<path d="M320.64 348.69H317.14V352.19H320.64V348.69Z" fill="#FAD141"/>
<path d="M320.64 341.95H317.14V345.45H320.64V341.95Z" fill="#4616CB"/>
<path d="M297.55 251.05C292.286 247.553 285.893 246.179 279.657 247.205C273.422 248.231 267.806 251.581 263.94 256.58L194.05 343.2C191.094 347.024 188.957 351.417 187.772 356.103C186.588 360.789 186.381 365.67 187.166 370.439C187.95 375.209 189.708 379.766 192.331 383.827C194.954 387.887 198.385 391.364 202.41 394.04C206.432 396.712 210.961 398.529 215.715 399.376C220.47 400.223 225.347 400.084 230.045 398.966C234.743 397.848 239.161 395.775 243.024 392.877C246.887 389.979 250.112 386.318 252.5 382.12L305.4 284.19C308.521 278.697 309.447 272.225 307.991 266.077C306.534 259.928 302.804 254.559 297.55 251.05Z" fill="#FAD141"/>
<path d="M182.21 371.25C183.555 379.464 187.416 387.058 193.258 392.986C199.101 398.914 206.638 402.883 214.832 404.348C223.025 405.812 231.471 404.699 239.006 401.163C246.54 397.626 252.792 391.839 256.9 384.6L257.9 382.68L296.03 312.07L309.81 286.58C313.502 279.979 314.564 272.228 312.785 264.878C311.006 257.527 306.516 251.12 300.215 246.938C293.913 242.756 286.265 241.109 278.801 242.326C271.336 243.543 264.607 247.534 259.96 253.5L191.5 338.43L190.18 340.05C186.783 344.426 184.323 349.454 182.952 354.822C181.581 360.189 181.328 365.781 182.21 371.25ZM279.93 252.34C280.544 252.177 281.175 252.083 281.81 252.06C282.379 251.979 282.954 251.942 283.53 251.95C284.909 251.916 286.287 252.036 287.64 252.31C288.214 252.413 288.781 252.55 289.34 252.72C289.963 252.895 290.577 253.102 291.18 253.34C291.28 253.34 291.39 253.44 291.52 253.49C292.02 253.7 292.52 253.94 292.99 254.18C293.584 254.482 294.161 254.816 294.72 255.18C295.215 255.503 295.689 255.857 296.14 256.24C296.384 256.403 296.609 256.595 296.81 256.81C297.142 257.065 297.45 257.349 297.73 257.66C297.885 257.798 298.029 257.948 298.16 258.11C298.502 258.44 298.817 258.798 299.1 259.18C299.435 259.56 299.743 259.965 300.02 260.39C300.037 260.399 300.053 260.411 300.065 260.427C300.077 260.442 300.086 260.461 300.09 260.48C300.228 260.662 300.355 260.852 300.47 261.05C300.662 261.342 300.835 261.646 300.99 261.96C301.168 262.241 301.325 262.535 301.46 262.84C301.674 263.247 301.861 263.668 302.02 264.1C302.279 264.675 302.489 265.27 302.65 265.88C302.871 266.474 303.025 267.091 303.11 267.72C303.251 268.339 303.348 268.967 303.4 269.6C303.886 273.753 303.045 277.953 301 281.6L289.63 302.6L249.5 377.09L248.07 379.72L247.81 380.11C247.53 380.6 247.24 381.11 246.9 381.6C246.145 382.736 245.316 383.822 244.42 384.85L243.6 385.72C243.08 386.27 242.53 386.78 241.98 387.28L241.83 387.4C236.416 392.183 229.466 394.866 222.243 394.961C215.02 395.056 208.002 392.557 202.464 387.918C196.927 383.278 193.237 376.807 192.066 369.678C190.894 362.55 192.318 355.238 196.08 349.07C196.113 348.988 196.156 348.911 196.21 348.84L196.27 348.73C196.79 347.89 197.37 347.09 197.99 346.27C198.29 345.87 198.58 345.5 198.9 345.15L199.81 344.02L267.81 259.72C270.391 256.376 273.982 253.953 278.05 252.81C278.662 252.602 279.291 252.445 279.93 252.34Z" fill="#FAD141"/>
<path opacity="0.1" d="M182.21 371.25C183.555 379.464 187.416 387.058 193.258 392.986C199.101 398.914 206.638 402.883 214.832 404.348C223.025 405.812 231.471 404.699 239.006 401.163C246.54 397.626 252.792 391.839 256.9 384.6L257.9 382.68L296.03 312.07L309.81 286.58C313.502 279.979 314.564 272.228 312.785 264.878C311.006 257.527 306.516 251.12 300.215 246.938C293.913 242.756 286.265 241.109 278.801 242.326C271.336 243.543 264.607 247.534 259.96 253.5L191.5 338.43L190.18 340.05C186.783 344.426 184.323 349.454 182.952 354.822C181.581 360.189 181.328 365.781 182.21 371.25ZM279.93 252.34C280.544 252.177 281.175 252.083 281.81 252.06C282.379 251.979 282.954 251.942 283.53 251.95C284.909 251.916 286.287 252.036 287.64 252.31C288.214 252.413 288.781 252.55 289.34 252.72C289.963 252.895 290.577 253.102 291.18 253.34C291.28 253.34 291.39 253.44 291.52 253.49C292.02 253.7 292.52 253.94 292.99 254.18C293.584 254.482 294.161 254.816 294.72 255.18C295.215 255.503 295.689 255.857 296.14 256.24C296.384 256.403 296.609 256.595 296.81 256.81C297.142 257.065 297.45 257.349 297.73 257.66C297.885 257.798 298.029 257.948 298.16 258.11C298.502 258.44 298.817 258.798 299.1 259.18C299.435 259.56 299.743 259.965 300.02 260.39C300.037 260.399 300.053 260.411 300.065 260.427C300.077 260.442 300.086 260.461 300.09 260.48C300.228 260.662 300.355 260.852 300.47 261.05C300.662 261.342 300.835 261.646 300.99 261.96C301.168 262.241 301.325 262.535 301.46 262.84C301.674 263.247 301.861 263.668 302.02 264.1C302.279 264.675 302.489 265.27 302.65 265.88C302.871 266.474 303.025 267.091 303.11 267.72C303.251 268.339 303.348 268.967 303.4 269.6C303.886 273.753 303.045 277.953 301 281.6L289.63 302.6L249.5 377.09L248.07 379.72L247.81 380.11C247.53 380.6 247.24 381.11 246.9 381.6C246.145 382.736 245.316 383.822 244.42 384.85L243.6 385.72C243.08 386.27 242.53 386.78 241.98 387.28L241.83 387.4C236.416 392.183 229.466 394.866 222.243 394.961C215.02 395.056 208.002 392.557 202.464 387.918C196.927 383.278 193.237 376.807 192.066 369.678C190.894 362.55 192.318 355.238 196.08 349.07C196.113 348.988 196.156 348.911 196.21 348.84L196.27 348.73C196.79 347.89 197.37 347.09 197.99 346.27C198.29 345.87 198.58 345.5 198.9 345.15L199.81 344.02L267.81 259.72C270.391 256.376 273.982 253.953 278.05 252.81C278.662 252.602 279.291 252.445 279.93 252.34Z" fill="black"/>
<path d="M246.94 381.61C250.246 376.638 252.003 370.797 251.99 364.827C251.977 358.856 250.194 353.023 246.866 348.066C243.538 343.108 238.814 339.249 233.293 336.976C227.772 334.703 221.701 334.119 215.847 335.296C209.993 336.474 204.62 339.36 200.407 343.591C196.194 347.822 193.331 353.207 192.178 359.066C191.026 364.924 191.636 370.993 193.933 376.505C196.229 382.016 200.108 386.723 205.08 390.03C208.381 392.226 212.083 393.75 215.973 394.516C219.864 395.281 223.867 395.272 227.754 394.49C231.641 393.709 235.336 392.169 238.628 389.959C241.92 387.749 244.744 384.912 246.94 381.61Z" fill="#4616CB"/>
<path d="M221.75 393.06C215.474 393.049 209.382 390.942 204.439 387.074C199.497 383.206 195.988 377.799 194.468 371.71C192.949 365.621 193.507 359.198 196.053 353.462C198.598 347.726 202.987 343.004 208.522 340.046C214.057 337.088 220.421 336.062 226.605 337.133C232.789 338.203 238.438 341.308 242.657 345.955C246.876 350.601 249.422 356.523 249.891 362.782C250.361 369.04 248.728 375.276 245.25 380.5C243.207 383.583 240.573 386.231 237.501 388.291C234.428 390.351 230.978 391.781 227.35 392.5C225.506 392.869 223.63 393.056 221.75 393.06ZM221.85 337.74C217.152 337.731 212.533 338.94 208.443 341.25C204.352 343.56 200.931 346.891 198.513 350.919C196.095 354.946 194.762 359.531 194.646 364.227C194.53 368.923 195.633 373.569 197.849 377.711C200.065 381.853 203.317 385.35 207.288 387.859C211.259 390.369 215.813 391.806 220.505 392.029C225.197 392.253 229.867 391.255 234.059 389.135C238.25 387.014 241.82 383.843 244.42 379.93C247.143 375.844 248.706 371.095 248.943 366.19C249.18 361.285 248.082 356.408 245.766 352.078C243.449 347.748 240.002 344.128 235.79 341.603C231.578 339.078 226.76 337.743 221.85 337.74Z" fill="#A7A8AA"/>
<path d="M242.29 370.26C241.785 369.922 241.384 369.45 241.131 368.898C240.879 368.345 240.785 367.733 240.86 367.13C240.951 366.45 240.998 365.766 241 365.08C241.001 364.475 241.17 363.881 241.488 363.366C241.805 362.851 242.259 362.433 242.8 362.16L246.58 360.28L240.5 347.97L236.71 349.84C236.162 350.101 235.553 350.206 234.949 350.142C234.345 350.079 233.771 349.85 233.29 349.48L232.47 348.9L231.61 348.36C231.086 348.06 230.656 347.621 230.366 347.091C230.077 346.562 229.94 345.963 229.97 345.36L230.24 341.15L216.5 340.26L216.23 344.48C216.182 345.083 215.971 345.662 215.618 346.154C215.266 346.645 214.786 347.031 214.23 347.27C213.604 347.538 212.994 347.838 212.4 348.17C211.875 348.472 211.276 348.622 210.671 348.604C210.065 348.587 209.477 348.402 208.97 348.07L205.46 345.74L197.85 357.19L201.35 359.52C201.851 359.861 202.249 360.333 202.499 360.886C202.75 361.438 202.843 362.048 202.77 362.65C202.7 363.33 202.65 364.01 202.64 364.65C202.638 365.255 202.47 365.849 202.154 366.365C201.839 366.882 201.388 367.302 200.85 367.58L197.03 369.5L203.14 381.82L206.94 379.95C207.483 379.688 208.088 379.581 208.688 379.641C209.288 379.701 209.86 379.925 210.34 380.29C210.609 380.498 210.89 380.692 211.18 380.87C211.46 381.06 211.74 381.25 212.03 381.41C212.552 381.712 212.981 382.151 213.27 382.68C213.559 383.209 213.698 383.808 213.67 384.41L213.4 388.62L227.13 389.5L227.39 385.29C227.435 384.686 227.646 384.107 227.998 383.614C228.351 383.122 228.833 382.737 229.39 382.5C230.02 382.228 230.634 381.92 231.23 381.58C231.756 381.28 232.355 381.131 232.96 381.151C233.566 381.17 234.154 381.357 234.66 381.69L238.16 384.02L245.78 372.57L242.29 370.26ZM216.9 372.26C215.443 371.289 214.307 369.908 213.636 368.291C212.965 366.674 212.788 364.895 213.128 363.178C213.468 361.46 214.309 359.882 215.546 358.644C216.783 357.405 218.359 356.561 220.076 356.218C221.793 355.875 223.573 356.049 225.19 356.718C226.808 357.387 228.191 358.52 229.165 359.975C230.138 361.43 230.658 363.141 230.659 364.892C230.66 366.642 230.142 368.354 229.17 369.81C228.526 370.778 227.697 371.608 226.731 372.255C225.765 372.902 224.681 373.351 223.541 373.578C222.401 373.804 221.228 373.804 220.088 373.576C218.949 373.348 217.865 372.898 216.9 372.25V372.26Z" fill="#A7A8AA"/>
<path d="M300.27 282.63C302.435 279.377 303.587 275.554 303.58 271.646C303.573 267.738 302.407 263.92 300.23 260.674C298.053 257.429 294.963 254.902 291.35 253.412C287.737 251.923 283.763 251.539 279.931 252.308C276.1 253.077 272.582 254.965 269.823 257.733C267.065 260.502 265.189 264.026 264.433 267.86C263.677 271.694 264.075 275.667 265.577 279.275C267.079 282.883 269.617 285.964 272.87 288.13C275.03 289.568 277.452 290.567 279.998 291.069C282.544 291.57 285.165 291.566 287.709 291.055C290.253 290.544 292.672 289.538 294.827 288.092C296.983 286.646 298.832 284.79 300.27 282.63Z" fill="#4616CB"/>
<path d="M283.79 290.3C279.644 290.292 275.62 288.899 272.355 286.344C269.091 283.788 266.773 280.216 265.77 276.194C264.767 272.171 265.135 267.929 266.817 264.139C268.499 260.35 271.399 257.231 275.055 255.277C278.711 253.323 282.915 252.646 287 253.353C291.085 254.06 294.817 256.11 297.604 259.18C300.391 262.249 302.074 266.161 302.384 270.295C302.695 274.429 301.617 278.549 299.32 282C297.617 284.557 295.308 286.654 292.598 288.102C289.888 289.55 286.862 290.305 283.79 290.3ZM283.85 254.06C282.675 254.062 281.502 254.18 280.35 254.41C275.946 255.304 272.053 257.856 269.477 261.539C266.902 265.222 265.84 269.753 266.511 274.197C267.182 278.641 269.536 282.657 273.084 285.414C276.633 288.172 281.106 289.46 285.578 289.013C290.05 288.566 294.179 286.417 297.111 283.012C300.043 279.606 301.555 275.204 301.333 270.715C301.111 266.226 299.173 261.994 295.919 258.895C292.665 255.795 288.344 254.064 283.85 254.06Z" fill="#A7A8AA"/>
<path d="M297.14 275.18C296.817 274.963 296.56 274.662 296.396 274.31C296.232 273.957 296.167 273.566 296.21 273.18C296.26 272.73 296.29 272.29 296.3 271.85C296.299 271.457 296.407 271.072 296.612 270.736C296.816 270.401 297.11 270.129 297.46 269.95L299.92 268.73L295.92 260.73L293.5 261.9C293.145 262.071 292.749 262.14 292.357 262.099C291.965 262.058 291.592 261.91 291.28 261.67L290.74 261.29L290.18 260.94C289.833 260.74 289.55 260.446 289.362 260.092C289.175 259.739 289.091 259.339 289.12 258.94L289.29 256.21L280.37 255.63L280.19 258.38C280.16 258.772 280.023 259.148 279.794 259.468C279.565 259.787 279.252 260.037 278.89 260.19C278.481 260.36 278.083 260.558 277.7 260.78C277.355 260.973 276.965 261.069 276.57 261.057C276.175 261.044 275.791 260.924 275.46 260.71L273.19 259.2L268.19 266.64L270.47 268.15C270.79 268.369 271.046 268.67 271.209 269.022C271.373 269.374 271.439 269.764 271.4 270.15C271.346 270.59 271.316 271.03 271.31 271.47C271.313 271.863 271.206 272.25 271.001 272.585C270.796 272.921 270.501 273.193 270.15 273.37L267.68 274.6L271.68 282.6L274.15 281.38C274.502 281.208 274.896 281.137 275.286 281.176C275.676 281.215 276.048 281.362 276.36 281.6C276.531 281.738 276.712 281.865 276.9 281.98C277.08 282.1 277.27 282.23 277.45 282.33C277.798 282.53 278.082 282.823 278.271 283.177C278.461 283.53 278.547 283.93 278.52 284.33L278.35 287.07L287.27 287.64L287.44 284.9C287.469 284.508 287.606 284.132 287.836 283.812C288.065 283.493 288.378 283.243 288.74 283.09C289.153 282.91 289.553 282.71 289.94 282.49C290.282 282.294 290.671 282.197 291.065 282.21C291.458 282.222 291.841 282.343 292.17 282.56L294.45 284.08L299.45 276.63L297.14 275.18ZM280.63 276.5C279.687 275.866 278.954 274.967 278.522 273.917C278.09 272.866 277.978 271.712 278.202 270.598C278.425 269.484 278.974 268.462 279.777 267.66C280.581 266.857 281.605 266.311 282.719 266.09C283.833 265.868 284.987 265.982 286.037 266.416C287.086 266.85 287.984 267.585 288.616 268.528C289.248 269.472 289.587 270.581 289.59 271.717C289.592 272.853 289.258 273.964 288.63 274.91C288.21 275.542 287.67 276.084 287.041 276.506C286.411 276.928 285.704 277.221 284.96 277.369C284.217 277.517 283.452 277.516 282.708 277.367C281.965 277.218 281.259 276.923 280.63 276.5Z" fill="#A7A8AA"/>
<path d="M283.88 269.8L283.54 269.43L284.28 268.75L284.62 269.12L283.88 269.8Z" fill="#FAD141"/>
<path d="M286.09 267.76L285.76 267.4L287.24 266.04L287.57 266.41L286.09 267.76ZM289.09 265.05L288.75 264.68L290.23 263.32L290.57 263.69L289.09 265.05ZM292.09 262.33L291.75 261.96L293.23 260.6L293.57 260.97L292.09 262.33ZM295.09 259.61L294.75 259.24L296.23 257.89L296.57 258.25L295.09 259.61ZM298.09 256.9L297.75 256.53L299.23 255.17L299.57 255.54L298.09 256.9ZM301.09 254.18L300.75 253.81L302.23 252.45L302.57 252.82L301.09 254.18ZM342.56 252.88H340.56V252.38H342.56V252.88ZM338.56 252.88H336.56V252.38H338.56V252.88ZM334.56 252.88H332.56V252.38H334.56V252.88ZM330.56 252.88H328.56V252.38H330.56V252.88ZM326.56 252.88H324.56V252.38H326.56V252.88ZM322.56 252.88H320.56V252.38H322.56V252.88ZM318.56 252.88H316.56V252.38H318.56V252.88ZM314.56 252.88H312.56V252.38H314.56V252.88ZM310.56 252.88H308.56V252.38H310.56V252.88ZM306.56 252.88H304.56V252.38H306.56V252.88Z" fill="#FAD141"/>
<path d="M345.37 252.38H344.37V252.88H345.37V252.38Z" fill="#FAD141"/>
<path d="M345.29 254.13C346.118 254.13 346.79 253.458 346.79 252.63C346.79 251.802 346.118 251.13 345.29 251.13C344.462 251.13 343.79 251.802 343.79 252.63C343.79 253.458 344.462 254.13 345.29 254.13Z" fill="#FAD141"/>
<path d="M360.7 250.7H353.17V254.06H360.7V250.7Z" fill="#FAD141"/>
<path d="M368.55 261.39H361.02V264.75H368.55V261.39Z" fill="#FAD141"/>
<path d="M377.7 250.7H363.43V254.06H377.7V250.7Z" fill="#FAD141"/>
<path d="M382.74 250.7H380.34V254.06H382.74V250.7Z" fill="#FAD141"/>
<path d="M386.57 250.7H384.17V254.06H386.57V250.7Z" fill="#FAD141"/>
<path d="M390.4 250.7H388V254.06H390.4V250.7Z" fill="#FAD141"/>
<path d="M367.44 256H353.17V259.36H367.44V256Z" fill="#FAD141"/>
<path d="M372.47 256H370.07V259.36H372.47V256Z" fill="#FAD141"/>
<path d="M376.31 256H373.91V259.36H376.31V256Z" fill="#FAD141"/>
<path d="M380.14 256H377.74V259.36H380.14V256Z" fill="#FAD141"/>
<path d="M355.57 261.39H353.17V264.75H355.57V261.39Z" fill="#FAD141"/>
<path d="M359.4 261.39H357V264.75H359.4V261.39Z" fill="#FAD141"/>
<path d="M361.479 398.458L360.743 399.135L361.082 399.503L361.818 398.826L361.479 398.458Z" fill="#FAD141"/>
<path d="M363.3 397.5L362.96 397.13L364.44 395.77L364.78 396.14L363.3 397.5ZM366.3 394.78L365.96 394.41L367.44 393.05L367.78 393.42L366.3 394.78ZM369.25 392.06L368.92 391.69L370.4 390.33L370.73 390.7L369.25 392.06ZM372.25 389.34L371.91 388.97L373.39 387.62L373.73 387.99L372.25 389.34ZM375.25 386.63L374.91 386.26L376.39 384.9L376.73 385.27L375.25 386.63ZM378.25 383.91L377.91 383.54L379.39 382.18L379.73 382.55L378.25 383.91ZM419.72 382.61H417.72V382.11H419.72V382.61ZM415.72 382.61H413.72V382.11H415.72V382.61ZM411.72 382.61H409.72V382.11H411.72V382.61ZM407.72 382.61H405.72V382.11H407.72V382.61ZM403.72 382.61H401.72V382.11H403.72V382.61ZM399.72 382.61H397.72V382.11H399.72V382.61ZM395.72 382.61H393.72V382.11H395.72V382.61ZM391.72 382.61H389.72V382.11H391.72V382.61ZM387.72 382.61H385.72V382.11H387.72V382.61ZM383.72 382.61H381.72V382.11H383.72V382.61Z" fill="#FAD141"/>
<path d="M422.57 382.07H421.57V382.57H422.57V382.07Z" fill="#FAD141"/>
<path d="M422.5 383.82C423.328 383.82 424 383.148 424 382.32C424 381.492 423.328 380.82 422.5 380.82C421.672 380.82 421 381.492 421 382.32C421 383.148 421.672 383.82 422.5 383.82Z" fill="#FAD141"/>
<path d="M437.9 380.39H430.37V383.75H437.9V380.39Z" fill="#FAD141"/>
<path d="M445.75 391.08H438.22V394.44H445.75V391.08Z" fill="#FAD141"/>
<path d="M454.91 380.39H440.64V383.75H454.91V380.39Z" fill="#FAD141"/>
<path d="M459.94 380.39H457.54V383.75H459.94V380.39Z" fill="#FAD141"/>
<path d="M463.78 380.39H461.38V383.75H463.78V380.39Z" fill="#FAD141"/>
<path d="M467.61 380.39H465.21V383.75H467.61V380.39Z" fill="#FAD141"/>
<path d="M444.64 385.69H430.37V389.05H444.64V385.69Z" fill="#FAD141"/>
<path d="M449.68 385.69H447.28V389.05H449.68V385.69Z" fill="#FAD141"/>
<path d="M453.51 385.69H451.11V389.05H453.51V385.69Z" fill="#FAD141"/>
<path d="M457.34 385.69H454.94V389.05H457.34V385.69Z" fill="#FAD141"/>
<path d="M432.77 391.08H430.37V394.44H432.77V391.08Z" fill="#FAD141"/>
<path d="M436.6 391.08H434.2V394.44H436.6V391.08Z" fill="#FAD141"/>
<path d="M217.873 364.61L217.057 365.188L217.346 365.596L218.162 365.018L217.873 364.61Z" fill="#FAD141"/>
<path d="M188.14 386.25H187.83V385.75H187.98L189.36 384.75L189.65 385.16L188.14 386.25ZM185.83 386.25H183.83V385.75H185.83V386.25ZM181.83 386.25H179.83V385.75H181.83V386.25ZM177.83 386.25H175.83V385.75H177.83V386.25ZM173.83 386.25H171.83V385.75H173.83V386.25ZM169.83 386.25H167.83V385.75H169.83V386.25ZM165.83 386.25H163.83V385.75H165.83V386.25ZM161.83 386.25H159.83V385.75H161.83V386.25ZM157.83 386.25H155.83V385.75H157.83V386.25ZM153.83 386.25H151.83V385.75H153.83V386.25ZM149.83 386.25H147.83V385.75H149.83V386.25ZM191.22 384.03L190.93 383.62L192.56 382.47L192.85 382.88L191.22 384.03ZM194.48 381.72L194.19 381.32L195.82 380.16L196.11 380.57L194.48 381.72ZM197.74 379.42L197.45 379.01L199.08 377.85L199.37 378.26L197.74 379.42ZM201 377.11L200.71 376.7L202.34 375.55L202.63 375.96L201 377.11ZM204.26 374.8L203.97 374.39L205.6 373.24L205.89 373.65L204.26 374.8ZM207.52 372.49L207.23 372.08L208.86 370.93L209.15 371.34L207.52 372.49ZM210.78 370.19L210.49 369.78L212.12 368.62L212.41 369.03L210.78 370.19ZM214.04 367.88L213.75 367.47L215.38 366.32L215.67 366.72L214.04 367.88Z" fill="#FAD141"/>
<path d="M145.89 385.75H144.89V386.25H145.89V385.75Z" fill="#FAD141"/>
<path d="M144.97 384.5C144.671 384.498 144.378 384.585 144.128 384.75C143.878 384.914 143.683 385.149 143.568 385.425C143.452 385.701 143.42 386.005 143.478 386.298C143.535 386.592 143.678 386.862 143.888 387.074C144.099 387.286 144.368 387.431 144.661 387.49C144.955 387.549 145.259 387.52 145.535 387.406C145.812 387.292 146.048 387.099 146.215 386.85C146.381 386.601 146.47 386.309 146.47 386.01C146.471 385.812 146.433 385.616 146.358 385.433C146.284 385.25 146.173 385.083 146.034 384.943C145.894 384.803 145.729 384.691 145.546 384.615C145.363 384.539 145.168 384.5 144.97 384.5Z" fill="#FAD141"/>
<path d="M106.93 384.32H99.3999V387.68H106.93V384.32Z" fill="#FAD141"/>
<path d="M114.78 395.01H107.25V398.37H114.78V395.01Z" fill="#FAD141"/>
<path d="M123.93 384.32H109.66V387.68H123.93V384.32Z" fill="#FAD141"/>
<path d="M128.97 384.32H126.57V387.68H128.97V384.32Z" fill="#FAD141"/>
<path d="M132.8 384.32H130.4V387.68H132.8V384.32Z" fill="#FAD141"/>
<path d="M136.63 384.32H134.23V387.68H136.63V384.32Z" fill="#FAD141"/>
<path d="M113.67 389.62H99.3999V392.98H113.67V389.62Z" fill="#FAD141"/>
<path d="M118.7 389.62H116.3V392.98H118.7V389.62Z" fill="#FAD141"/>
<path d="M122.54 389.62H120.14V392.98H122.54V389.62Z" fill="#FAD141"/>
<path d="M126.37 389.62H123.97V392.98H126.37V389.62Z" fill="#FAD141"/>
<path d="M101.8 395.01H99.3999V398.37H101.8V395.01Z" fill="#FAD141"/>
<path d="M105.63 395.01H103.23V398.37H105.63V395.01Z" fill="#FAD141"/>
<path d="M342.403 103.375L342.064 103.743L342.801 104.42L343.139 104.051L342.403 103.375Z" fill="#FAD141"/>
<path d="M340.59 102.37L339.12 101.02L339.45 100.65L340.92 102L340.59 102.37ZM337.65 99.67L336.18 98.32L336.51 97.95L337.98 99.3L337.65 99.67ZM334.71 96.97L333.24 95.62L333.57 95.25L335.04 96.6L334.71 96.97ZM331.76 94.27L330.29 92.91L330.63 92.55L332.1 93.9L331.76 94.27ZM328.82 91.56L327.35 90.21L327.69 89.85L329.16 91.2L328.82 91.56ZM325.88 88.86L324.41 87.5L324.75 87.13L326.22 88.5L325.88 88.86ZM322.94 86.16L321.5 84.81L321.84 84.44L323.31 85.79L322.94 86.16ZM320 83.5L318.5 82.11L318.84 81.74L320.31 83.09L320 83.5ZM317.06 80.8L315.59 79.45L315.93 79.08L317.4 80.43L317.06 80.8ZM314.12 78.1L312.9 76.97H312.76V76.47H313.09L314.5 77.69L314.12 78.1ZM310.76 76.97H308.76V76.47H310.76V76.97ZM306.76 76.97H304.76V76.47H306.76V76.97ZM302.76 76.97H300.76V76.47H302.76V76.97ZM298.76 76.97H296.76V76.47H298.76V76.97ZM294.76 76.97H292.76V76.47H294.76V76.97ZM290.76 76.97H288.76V76.47H290.76V76.97ZM286.76 76.97H284.76V76.47H286.76V76.97ZM282.76 76.97H280.76V76.47H282.76V76.97ZM278.76 76.97H276.76V76.47H278.76V76.97ZM274.76 76.97H272.76V76.47H274.76V76.97Z" fill="#FAD141"/>
<path d="M270.83 76.4301H269.83V76.9301H270.83V76.4301Z" fill="#FAD141"/>
<path d="M269.91 75.18C269.611 75.178 269.317 75.2652 269.067 75.4303C268.818 75.5955 268.623 75.8312 268.507 76.1075C268.391 76.3839 268.361 76.6883 268.419 76.9821C268.477 77.276 268.621 77.5459 268.832 77.7577C269.044 77.9695 269.314 78.1135 269.608 78.1715C269.902 78.2294 270.206 78.1987 270.483 78.0831C270.759 77.9676 270.995 77.7725 271.16 77.5227C271.325 77.2728 271.412 76.9795 271.41 76.68C271.407 76.283 271.249 75.903 270.968 75.6223C270.687 75.3415 270.307 75.1826 269.91 75.18Z" fill="#FAD141"/>
<path d="M258.32 75.27H250.79V78.63H258.32V75.27Z" fill="#FAD141"/>
<path d="M233.07 80.57H225.54V83.93H233.07V80.57Z" fill="#FAD141"/>
<path d="M239.74 75.27H225.47V78.63H239.74V75.27Z" fill="#FAD141"/>
<path d="M244.77 75.27H242.37V78.63H244.77V75.27Z" fill="#FAD141"/>
<path d="M248.61 75.27H246.21V78.63H248.61V75.27Z" fill="#FAD141"/>
<path d="M262.71 75.27H260.31V78.63H262.71V75.27Z" fill="#FAD141"/>
<path d="M248.97 80.57H234.7V83.93H248.97V80.57Z" fill="#FAD141"/>
<path d="M253.19 80.57H250.79V83.93H253.19V80.57Z" fill="#FAD141"/>
<path d="M227.87 85.96H225.47V89.32H227.87V85.96Z" fill="#FAD141"/>
<path d="M231.7 85.96H229.3V89.32H231.7V85.96Z" fill="#FAD141"/>
</g>
<defs>
<filter id="filter0_d_118_22826" x="0" y="0.5" width="555" height="532" filterUnits="userSpaceOnUse" color-interpolation-filters="sRGB">
<feFlood flood-opacity="0" result="BackgroundImageFix"/>
<feColorMatrix in="SourceAlpha" type="matrix" values="0 0 0 0 0 0 0 0 0 0 0 0 0 0 0 0 0 0 127 0" result="hardAlpha"/>
<feOffset dx="-6" dy="8"/>
<feGaussianBlur stdDeviation="8"/>
<feComposite in2="hardAlpha" operator="out"/>
<feColorMatrix type="matrix" values="0 0 0 0 0 0 0 0 0 0 0 0 0 0 0 0 0 0 0.2 0"/>
<feBlend mode="normal" in2="BackgroundImageFix" result="effect1_dropShadow_118_22826"/>
<feBlend mode="normal" in="SourceGraphic" in2="effect1_dropShadow_118_22826" result="shape"/>
</filter>
</defs>
</svg>
